  0
SECTION
  2
HEADER
  9
$ACADVER
  1
AC1014
  9
$ACADMAINTVER
 70
     9
  9
$DWGCODEPAGE
  3
ANSI_1252
  9
$INSBASE
 10
0.0
 20
0.0
 30
0.0
  9
$EXTMIN
 10
1.000000000000000E+20
 20
1.000000000000000E+20
 30
1.000000000000000E+20
  9
$EXTMAX
 10
-1.000000000000000E+20
 20
-1.000000000000000E+20
 30
-1.000000000000000E+20
  9
$LIMMIN
 10
0.0
 20
0.0
  9
$LIMMAX
 10
12.0
 20
9.0
  9
$ORTHOMODE
 70
     0
  9
$REGENMODE
 70
     1
  9
$FILLMODE
 70
     1
  9
$QTEXTMODE
 70
     0
  9
$MIRRTEXT
 70
     1
  9
$DRAGMODE
 70
     2
  9
$LTSCALE
 40
1.0
  9
$OSMODE
 70
    37
  9
$ATTMODE
 70
     1
  9
$TEXTSIZE
 40
0.2
  9
$TRACEWID
 40
0.05
  9
$TEXTSTYLE
  7
STANDARD
  9
$CLAYER
  8
0
  9
$CELTYPE
  6
BYLAYER
  9
$CECOLOR
 62
   256
  9
$CELTSCALE
 40
1.0
  9
$DELOBJ
 70
     1
  9
$DISPSILH
 70
     0
  9
$DIMSCALE
 40
1.0
  9
$DIMASZ
 40
0.18
  9
$DIMEXO
 40
0.0625
  9
$DIMDLI
 40
0.38
  9
$DIMRND
 40
0.0
  9
$DIMDLE
 40
0.0
  9
$DIMEXE
 40
0.18
  9
$DIMTP
 40
0.0
  9
$DIMTM
 40
0.0
  9
$DIMTXT
 40
0.18
  9
$DIMCEN
 40
0.09
  9
$DIMTSZ
 40
0.0
  9
$DIMTOL
 70
     0
  9
$DIMLIM
 70
     0
  9
$DIMTIH
 70
     1
  9
$DIMTOH
 70
     1
  9
$DIMSE1
 70
     0
  9
$DIMSE2
 70
     0
  9
$DIMTAD
 70
     0
  9
$DIMZIN
 70
     0
  9
$DIMBLK
  1

  9
$DIMASO
 70
     1
  9
$DIMSHO
 70
     1
  9
$DIMPOST
  1

  9
$DIMAPOST
  1

  9
$DIMALT
 70
     0
  9
$DIMALTD
 70
     2
  9
$DIMALTF
 40
25.4
  9
$DIMLFAC
 40
1.0
  9
$DIMTOFL
 70
     0
  9
$DIMTVP
 40
0.0
  9
$DIMTIX
 70
     0
  9
$DIMSOXD
 70
     0
  9
$DIMSAH
 70
     0
  9
$DIMBLK1
  1

  9
$DIMBLK2
  1

  9
$DIMSTYLE
  2
STANDARD
  9
$DIMCLRD
 70
     0
  9
$DIMCLRE
 70
     0
  9
$DIMCLRT
 70
     0
  9
$DIMTFAC
 40
1.0
  9
$DIMGAP
 40
0.09
  9
$DIMJUST
 70
     0
  9
$DIMSD1
 70
     0
  9
$DIMSD2
 70
     0
  9
$DIMTOLJ
 70
     1
  9
$DIMTZIN
 70
     0
  9
$DIMALTZ
 70
     0
  9
$DIMALTTZ
 70
     0
  9
$DIMFIT
 70
     3
  9
$DIMUPT
 70
     0
  9
$DIMUNIT
 70
     2
  9
$DIMDEC
 70
     4
  9
$DIMTDEC
 70
     4
  9
$DIMALTU
 70
     2
  9
$DIMALTTD
 70
     2
  9
$DIMTXSTY
  7
STANDARD
  9
$DIMAUNIT
 70
     0
  9
$LUNITS
 70
     2
  9
$LUPREC
 70
     4
  9
$SKETCHINC
 40
0.1
  9
$FILLETRAD
 40
0.5
  9
$AUNITS
 70
     0
  9
$AUPREC
 70
     0
  9
$MENU
  1
.
  9
$ELEVATION
 40
0.0
  9
$PELEVATION
 40
0.0
  9
$THICKNESS
 40
0.0
  9
$LIMCHECK
 70
     0
  9
$CHAMFERA
 40
0.0
  9
$CHAMFERB
 40
0.0
  9
$CHAMFERC
 40
0.0
  9
$CHAMFERD
 40
0.0
  9
$SKPOLY
 70
     0
  9
$TDCREATE
 40
2457029.77804412
  9
$TDUPDATE
 40
2457029.77804441
  9
$TDINDWG
 40
0.0000000116
  9
$TDUSRTIMER
 40
0.0000000116
  9
$USRTIMER
 70
     1
  9
$ANGBASE
 50
0.0
  9
$ANGDIR
 70
     0
  9
$PDMODE
 70
     0
  9
$PDSIZE
 40
0.0
  9
$PLINEWID
 40
0.0
  9
$COORDS
 70
     1
  9
$SPLFRAME
 70
     0
  9
$SPLINETYPE
 70
     6
  9
$SPLINESEGS
 70
     8
  9
$ATTDIA
 70
     0
  9
$ATTREQ
 70
     1
  9
$HANDLING
 70
     1
  9
$HANDSEED
  5
1C7
  9
$SURFTAB1
 70
     6
  9
$SURFTAB2
 70
     6
  9
$SURFTYPE
 70
     6
  9
$SURFU
 70
     6
  9
$SURFV
 70
     6
  9
$UCSNAME
  2

  9
$UCSORG
 10
0.0
 20
0.0
 30
0.0
  9
$UCSXDIR
 10
1.0
 20
0.0
 30
0.0
  9
$UCSYDIR
 10
0.0
 20
1.0
 30
0.0
  9
$PUCSNAME
  2

  9
$PUCSORG
 10
0.0
 20
0.0
 30
0.0
  9
$PUCSXDIR
 10
1.0
 20
0.0
 30
0.0
  9
$PUCSYDIR
 10
0.0
 20
1.0
 30
0.0
  9
$USERI1
 70
     0
  9
$USERI2
 70
     0
  9
$USERI3
 70
     0
  9
$USERI4
 70
     0
  9
$USERI5
 70
     0
  9
$USERR1
 40
0.0
  9
$USERR2
 40
0.0
  9
$USERR3
 40
0.0
  9
$USERR4
 40
0.0
  9
$USERR5
 40
0.0
  9
$WORLDVIEW
 70
     1
  9
$SHADEDGE
 70
     3
  9
$SHADEDIF
 70
    70
  9
$TILEMODE
 70
     1
  9
$MAXACTVP
 70
    64
  9
$PINSBASE
 10
0.0
 20
0.0
 30
0.0
  9
$PLIMCHECK
 70
     0
  9
$PEXTMIN
 10
1.000000000000000E+20
 20
1.000000000000000E+20
 30
1.000000000000000E+20
  9
$PEXTMAX
 10
-1.000000000000000E+20
 20
-1.000000000000000E+20
 30
-1.000000000000000E+20
  9
$PLIMMIN
 10
0.0
 20
0.0
  9
$PLIMMAX
 10
12.0
 20
9.0
  9
$UNITMODE
 70
     0
  9
$VISRETAIN
 70
     1
  9
$PLINEGEN
 70
     0
  9
$PSLTSCALE
 70
     1
  9
$TREEDEPTH
 70
  3020
  9
$PICKSTYLE
 70
     1
  9
$CMLSTYLE
  2
STANDARD
  9
$CMLJUST
 70
     0
  9
$CMLSCALE
 40
1.0
  9
$PROXYGRAPHICS
 70
     1
  9
$MEASUREMENT
 70
     0
  0
ENDSEC
  0
SECTION
  2
CLASSES
  0
CLASS
  1
ACDBDICTIONARYWDFLT
  2
AcDbDictionaryWithDefault
  3
ObjectDBX Classes
 90
        0
280
     0
281
     0
  0
CLASS
  1
VISUALSTYLE
  2
AcDbVisualStyle
  3
ObjectDBX Classes
 90
     4095
280
     0
281
     0
  0
CLASS
  1
MATERIAL
  2
AcDbMaterial
  3
ObjectDBX Classes
 90
     1153
280
     0
281
     0
  0
CLASS
  1
SCALE
  2
AcDbScale
  3
ObjectDBX Classes
 90
     1153
280
     0
281
     0
  0
CLASS
  1
SUN
  2
AcDbSun
  3
SCENEOE
 90
     1153
280
     0
281
     0
  0
CLASS
  1
DICTIONARYVAR
  2
AcDbDictionaryVar
  3
ObjectDBX Classes
 90
        0
280
     0
281
     0
  0
CLASS
  1
XRECORD
  2
AcDbXrecord
  3
ObjectDBX Classes
 90
        0
280
     0
281
     0
  0
CLASS
  1
LWPOLYLINE
  2
AcDbPolyline
  3
ObjectDBX Classes
 90
        0
280
     0
281
     1
  0
CLASS
  1
HATCH
  2
AcDbHatch
  3
ObjectDBX Classes
 90
        0
280
     0
281
     1
  0
CLASS
  1
ACDBPLACEHOLDER
  2
AcDbPlaceHolder
  3
ObjectDBX Classes
 90
        0
280
     0
281
     0
  0
CLASS
  1
LAYOUT
  2
AcDbLayout
  3
ObjectDBX Classes
 90
        0
280
     0
281
     0
  0
ENDSEC
  0
SECTION
  2
TABLES
  0
TABLE
  2
VPORT
  5
8
102
{ACAD_XDICTIONARY
360
1BD
102
}
330
0
100
AcDbSymbolTable
 70
     1
  0
VPORT
  5
29
330
8
100
AcDbSymbolTableRecord
100
AcDbViewportTableRecord
  2
*ACTIVE
 70
     0
 10
0.0
 20
0.0
 11
1.0
 21
1.0
 12
0.0
 22
0.0
 13
0.0
 23
0.0
 14
0.5
 24
0.5
 15
0.5
 25
0.5
 16
0.0
 26
0.0
 36
1.0
 17
0.0
 27
0.0
 37
-1000.0
 40
10.52631578947369
 41
2.146478873239436
 42
50.0
 43
74.13428827477725
 44
100.7835745580611
 50
0.0
 51
0.0
 71
     0
 72
   100
 73
     1
 74
     3
 75
     0
 76
     0
 77
     0
 78
     0
  0
ENDTAB
  0
TABLE
  2
LTYPE
  5
5
330
0
100
AcDbSymbolTable
 70
     1
  0
LTYPE
  5
14
330
5
100
AcDbSymbolTableRecord
100
AcDbLinetypeTableRecord
  2
BYBLOCK
 70
     0
  3

 72
    65
 73
     0
 40
0.0
  0
LTYPE
  5
15
330
5
100
AcDbSymbolTableRecord
100
AcDbLinetypeTableRecord
  2
BYLAYER
 70
     0
  3

 72
    65
 73
     0
 40
0.0
  0
LTYPE
  5
16
330
5
100
AcDbSymbolTableRecord
100
AcDbLinetypeTableRecord
  2
CONTINUOUS
 70
     0
  3
Solid line
 72
    65
 73
     0
 40
0.0
  0
ENDTAB
  0
TABLE
  2
LAYER
  5
2
330
0
100
AcDbSymbolTable
 70
     3
  0
LAYER
  5
10
330
2
100
AcDbSymbolTableRecord
100
AcDbLayerTableRecord
  2
0
 70
     0
 62
     7
  6
CONTINUOUS
  0
LAYER
  5
6A
330
2
100
AcDbSymbolTableRecord
100
AcDbLayerTableRecord
  2
PROFILEEDGES
 70
     0
 62
     7
  6
CONTINUOUS
  0
LAYER
  5
6B
330
2
100
AcDbSymbolTableRecord
100
AcDbLayerTableRecord
  2
SECTIONCUTEDGES
 70
     0
 62
     7
  6
CONTINUOUS
  0
ENDTAB
  0
TABLE
  2
STYLE
  5
3
330
0
100
AcDbSymbolTable
 70
     1
  0
STYLE
  5
11
330
3
100
AcDbSymbolTableRecord
100
AcDbTextStyleTableRecord
  2
STANDARD
 70
     0
 40
0.0
 41
1.0
 50
0.0
 71
     0
 42
0.2
  3
txt
  4

  0
ENDTAB
  0
TABLE
  2
VIEW
  5
6
330
0
100
AcDbSymbolTable
 70
     0
  0
ENDTAB
  0
TABLE
  2
UCS
  5
7
330
0
100
AcDbSymbolTable
 70
     0
  0
ENDTAB
  0
TABLE
  2
APPID
  5
9
330
0
100
AcDbSymbolTable
 70
     1
  0
APPID
  5
12
330
9
100
AcDbSymbolTableRecord
100
AcDbRegAppTableRecord
  2
ACAD
 70
     0
  0
ENDTAB
  0
TABLE
  2
DIMSTYLE
  5
A
330
0
100
AcDbSymbolTable
 70
     1
  0
DIMSTYLE
105
27
330
A
100
AcDbSymbolTableRecord
100
AcDbDimStyleTableRecord
  2
STANDARD
 70
     0
  3

  4

  5

  6

  7

 40
1.0
 41
0.18
 42
0.0625
 43
0.38
 44
0.18
 45
0.0
 46
0.0
 47
0.0
 48
0.0
140
0.18
141
0.09
142
0.0
143
25.4
144
1.0
145
0.0
146
1.0
147
0.09
 71
     0
 72
     0
 73
     1
 74
     1
 75
     0
 76
     0
 77
     0
 78
     0
170
     0
171
     2
172
     0
173
     0
174
     0
175
     0
176
     0
177
     0
178
     0
270
     2
271
     4
272
     4
273
     2
274
     2
340
11
275
     0
280
     0
281
     0
282
     0
283
     1
284
     0
285
     0
286
     0
287
     3
288
     0
  0
ENDTAB
  0
TABLE
  2
BLOCK_RECORD
  5
1
330
0
100
AcDbSymbolTable
 70
     1
  0
BLOCK_RECORD
  5
1F
330
1
100
AcDbSymbolTableRecord
100
AcDbBlockTableRecord
  2
*MODEL_SPACE
  0
BLOCK_RECORD
  5
1B
330
1
100
AcDbSymbolTableRecord
100
AcDbBlockTableRecord
  2
*PAPER_SPACE
  0
ENDTAB
  0
ENDSEC
  0
SECTION
  2
BLOCKS
  0
BLOCK
  5
20
330
1F
100
AcDbEntity
  8
0
100
AcDbBlockBegin
  2
*MODEL_SPACE
 70
     0
 10
0.0
 20
0.0
 30
0.0
  3
*MODEL_SPACE
  1

  0
ENDBLK
  5
21
330
1F
100
AcDbEntity
  8
0
100
AcDbBlockEnd
  0
BLOCK
  5
1C
330
1B
100
AcDbEntity
 67
     1
  8
0
100
AcDbBlockBegin
  2
*PAPER_SPACE
 70
     0
 10
0.0
 20
0.0
 30
0.0
  3
*PAPER_SPACE
  1

  0
ENDBLK
  5
1D
330
1B
100
AcDbEntity
 67
     1
  8
0
100
AcDbBlockEnd
  0
ENDSEC
  0
SECTION
  2
ENTITIES
  0
LINE
  5
6C
330
1F
100
AcDbEntity
  8
0
100
AcDbLine
 10
-1.198431922118515
 20
1.914620590072964
 30
0.0
 11
-1.246235365241882
 21
1.83005181809294
 31
0.0
  0
LINE
  5
6D
330
1F
100
AcDbEntity
  8
0
100
AcDbLine
 10
-1.164948605690697
 20
2.0058122228561
 30
0.0
 11
-1.198431922118515
 21
1.914620590072964
 31
0.0
  0
LINE
  5
6E
330
1F
100
AcDbEntity
  8
0
100
AcDbLine
 10
-1.146668631444822
 20
2.101221283800164
 30
0.0
 11
-1.164948605690697
 21
2.0058122228561
 31
0.0
  0
LINE
  5
6F
330
1F
100
AcDbEntity
  8
0
100
AcDbLine
 10
-1.144074184482821
 20
2.198331093879375
 30
0.0
 11
-1.146668631444822
 21
2.101221283800164
 31
0.0
  0
LINE
  5
70
330
1F
100
AcDbEntity
  8
0
100
AcDbLine
 10
-1.15723370055061
 20
2.294580112084866
 30
0.0
 11
-1.144074184482821
 21
2.198331093879375
 31
0.0
  0
LINE
  5
71
330
1F
100
AcDbEntity
  8
0
100
AcDbLine
 10
-1.185800060855176
 20
2.387429503184691
 30
0.0
 11
-1.15723370055061
 21
2.294580112084866
 31
0.0
  0
LINE
  5
72
330
1F
100
AcDbEntity
  8
0
100
AcDbLine
 10
-1.229019748287029
 20
2.474430106555879
 30
0.0
 11
-1.185800060855176
 21
2.387429503184691
 31
0.0
  0
LINE
  5
73
330
1F
100
AcDbEntity
  8
0
100
AcDbLine
 10
-1.28575272352721
 20
2.553287039599567
 30
0.0
 11
-1.229019748287029
 21
2.474430106555879
 31
0.0
  0
LINE
  5
74
330
1F
100
AcDbEntity
  8
0
100
AcDbLine
 10
-1.354502496751322
 20
2.621920231644609
 30
0.0
 11
-1.28575272352721
 21
2.553287039599567
 31
0.0
  0
LINE
  5
75
330
1F
100
AcDbEntity
  8
0
100
AcDbLine
 10
-1.433455601705855
 20
2.678519291589957
 30
0.0
 11
-1.354502496751322
 21
2.621920231644609
 31
0.0
  0
LINE
  5
76
330
1F
100
AcDbEntity
  8
0
100
AcDbLine
 10
-1.520529430918368
 20
2.72159126199913
 30
0.0
 11
-1.433455601705855
 21
2.678519291589957
 31
0.0
  0
LINE
  5
77
330
1F
100
AcDbEntity
  8
0
100
AcDbLine
 10
-1.613427170255
 20
2.75
 30
0.0
 11
-1.520529430918368
 21
2.72159126199913
 31
0.0
  0
LINE
  5
78
330
1F
100
AcDbEntity
  8
0
100
AcDbLine
 10
-2.874999999999999
 20
2.750000000000001
 30
0.0
 11
-1.613427170255
 21
2.75
 31
0.0
  0
LINE
  5
79
330
1F
100
AcDbEntity
  8
0
100
AcDbLine
 10
2.668577871373829
 20
4.998097349045877
 30
0.0
 11
2.625
 21
4.999999999999999
 31
0.0
  0
LINE
  5
7A
330
1F
100
AcDbEntity
  8
0
100
AcDbLine
 10
2.711824088833465
 20
4.992403876506102
 30
0.0
 11
2.668577871373829
 21
4.998097349045877
 31
0.0
  0
LINE
  5
7B
330
1F
100
AcDbEntity
  8
0
100
AcDbLine
 10
2.754409522551258
 20
4.982962913144532
 30
0.0
 11
2.711824088833465
 21
4.992403876506102
 31
0.0
  0
LINE
  5
7C
330
1F
100
AcDbEntity
  8
0
100
AcDbLine
 10
2.796010071662833
 20
4.969846310392952
 30
0.0
 11
2.754409522551258
 21
4.982962913144532
 31
0.0
  0
LINE
  5
7D
330
1F
100
AcDbEntity
  8
0
100
AcDbLine
 10
2.836309130870349
 20
4.953153893518325
 30
0.0
 11
2.796010071662833
 21
4.969846310392952
 31
0.0
  0
LINE
  5
7E
330
1F
100
AcDbEntity
  8
0
100
AcDbLine
 10
2.875
 20
4.933012701892223
 30
0.0
 11
2.836309130870349
 21
4.953153893518325
 31
0.0
  0
LINE
  5
7F
330
1F
100
AcDbEntity
  8
0
100
AcDbLine
 10
2.911788218175523
 20
4.909576022144498
 30
0.0
 11
2.875
 21
4.933012701892223
 31
0.0
  0
LINE
  5
80
330
1F
100
AcDbEntity
  8
0
100
AcDbLine
 10
2.946393804843272
 20
4.883022221559492
 30
0.0
 11
2.911788218175523
 21
4.909576022144498
 31
0.0
  0
LINE
  5
81
330
1F
100
AcDbEntity
  8
0
100
AcDbLine
 10
2.978553390593273
 20
4.853553390593276
 30
0.0
 11
2.946393804843272
 21
4.883022221559492
 31
0.0
  0
LINE
  5
82
330
1F
100
AcDbEntity
  8
0
100
AcDbLine
 10
3.008022221559489
 20
4.821393804843267
 30
0.0
 11
2.978553390593273
 21
4.853553390593276
 31
0.0
  0
LINE
  5
83
330
1F
100
AcDbEntity
  8
0
100
AcDbLine
 10
3.034576022144496
 20
4.786788218175523
 30
0.0
 11
3.008022221559489
 21
4.821393804843267
 31
0.0
  0
LINE
  5
84
330
1F
100
AcDbEntity
  8
0
100
AcDbLine
 10
3.058012701892221
 20
4.749999999999999
 30
0.0
 11
3.034576022144496
 21
4.786788218175523
 31
0.0
  0
LINE
  5
85
330
1F
100
AcDbEntity
  8
0
100
AcDbLine
 10
3.078153893518326
 20
4.711309130870347
 30
0.0
 11
3.058012701892221
 21
4.749999999999999
 31
0.0
  0
LINE
  5
86
330
1F
100
AcDbEntity
  8
0
100
AcDbLine
 10
3.094846310392956
 20
4.671010071662834
 30
0.0
 11
3.078153893518326
 21
4.711309130870347
 31
0.0
  0
LINE
  5
87
330
1F
100
AcDbEntity
  8
0
100
AcDbLine
 10
3.107962913144537
 20
4.629409522551263
 30
0.0
 11
3.094846310392956
 21
4.671010071662834
 31
0.0
  0
LINE
  5
88
330
1F
100
AcDbEntity
  8
0
100
AcDbLine
 10
3.117403876506106
 20
4.586824088833466
 30
0.0
 11
3.107962913144537
 21
4.629409522551263
 31
0.0
  0
LINE
  5
89
330
1F
100
AcDbEntity
  8
0
100
AcDbLine
 10
3.123097349045874
 20
4.543577871373826
 30
0.0
 11
3.117403876506106
 21
4.586824088833466
 31
0.0
  0
LINE
  5
8A
330
1F
100
AcDbEntity
  8
0
100
AcDbLine
 10
3.125
 20
4.499999999999999
 30
0.0
 11
3.123097349045874
 21
4.543577871373826
 31
0.0
  0
LINE
  5
8B
330
1F
100
AcDbEntity
  8
0
100
AcDbLine
 10
2.359374999999996
 20
4.265624999999999
 30
0.0
 11
3.124999999999998
 21
4.265624999999999
 31
0.0
  0
LINE
  5
8C
330
1F
100
AcDbEntity
  8
0
100
AcDbLine
 10
2.109374999999996
 20
3.734374999999999
 30
0.0
 11
2.109374999999996
 21
4.265624999999999
 31
0.0
  0
LINE
  5
8D
330
1F
100
AcDbEntity
  8
0
100
AcDbLine
 10
3.375
 20
3.734374999999999
 30
0.0
 11
2.359374999999996
 21
3.734374999999999
 31
0.0
  0
LINE
  5
8E
330
1F
100
AcDbEntity
  8
0
100
AcDbLine
 10
3.375
 20
3.249999999999999
 30
0.0
 11
3.375
 21
3.734374999999999
 31
0.0
  0
LINE
  5
8F
330
1F
100
AcDbEntity
  8
0
100
AcDbLine
 10
2.375000000000001
 20
2.749999999999999
 30
0.0
 11
2.874999999999999
 21
2.749999999999999
 31
0.0
  0
LINE
  5
90
330
1F
100
AcDbEntity
  8
0
100
AcDbLine
 10
2.163081996588576
 20
2.743340208445416
 30
0.0
 11
2.375000000000001
 21
2.749999999999999
 31
0.0
  0
LINE
  5
91
330
1F
100
AcDbEntity
  8
0
100
AcDbLine
 10
1.952000336720482
 20
2.723387116936364
 30
0.0
 11
2.163081996588576
 21
2.743340208445416
 31
0.0
  0
LINE
  5
92
330
1F
100
AcDbEntity
  8
0
100
AcDbLine
 10
1.742588063273188
 20
2.690219471209324
 30
0.0
 11
1.952000336720482
 21
2.723387116936364
 31
0.0
  0
LINE
  5
93
330
1F
100
AcDbEntity
  8
0
100
AcDbLine
 10
1.535671630818624
 20
2.643968168809131
 30
0.0
 11
1.742588063273188
 21
2.690219471209324
 31
0.0
  0
LINE
  5
94
330
1F
100
AcDbEntity
  8
0
100
AcDbLine
 10
1.33206764398456
 20
2.584815742496147
 30
0.0
 11
1.535671630818624
 21
2.643968168809131
 31
0.0
  0
LINE
  5
95
330
1F
100
AcDbEntity
  8
0
100
AcDbLine
 10
1.132579634689219
 20
2.512995639872848
 30
0.0
 11
1.33206764398456
 21
2.584815742496147
 31
0.0
  0
LINE
  5
96
330
1F
100
AcDbEntity
  8
0
100
AcDbLine
 10
0.9379948909678868
 20
2.428791302072817
 30
0.0
 11
1.132579634689219
 21
2.512995639872848
 31
0.0
  0
LINE
  5
97
330
1F
100
AcDbEntity
  8
0
100
AcDbLine
 10
0.7490813499067182
 20
2.332535045148042
 30
0.0
 11
0.9379948909678868
 21
2.428791302072817
 31
0.0
  0
LINE
  5
98
330
1F
100
AcDbEntity
  8
0
100
AcDbLine
 10
0.5665845669458927
 20
2.2246067485693
 30
0.0
 11
0.7490813499067182
 21
2.332535045148042
 31
0.0
  0
LINE
  5
99
330
1F
100
AcDbEntity
  8
0
100
AcDbLine
 10
0.3912247735129091
 20
2.105432356015449
 30
0.0
 11
0.5665845669458927
 21
2.2246067485693
 31
0.0
  0
LINE
  5
9A
330
1F
100
AcDbEntity
  8
0
100
AcDbLine
 10
0.2236940345981777
 20
1.97548219436829
 30
0.0
 11
0.3912247735129091
 21
2.105432356015449
 31
0.0
  0
LINE
  5
9B
330
1F
100
AcDbEntity
  8
0
100
AcDbLine
 10
0.0646535174906804
 20
1.83526911754727
 30
0.0
 11
0.2236940345981777
 21
1.97548219436829
 31
0.0
  0
LINE
  5
9C
330
1F
100
AcDbEntity
  8
0
100
AcDbLine
 10
-0.0852691175472593
 20
1.685346482509324
 30
0.0
 11
0.0646535174906804
 21
1.83526911754727
 31
0.0
  0
LINE
  5
9D
330
1F
100
AcDbEntity
  8
0
100
AcDbLine
 10
-0.2254821943682837
 20
1.526305965401832
 30
0.0
 11
-0.0852691175472593
 21
1.685346482509324
 31
0.0
  0
LINE
  5
9E
330
1F
100
AcDbEntity
  8
0
100
AcDbLine
 10
-0.3554323560154433
 20
1.358775226487097
 30
0.0
 11
-0.2254821943682837
 21
1.526305965401832
 31
0.0
  0
LINE
  5
9F
330
1F
100
AcDbEntity
  8
0
100
AcDbLine
 10
-0.4746067485692969
 20
1.183415433054115
 30
0.0
 11
-0.3554323560154433
 21
1.358775226487097
 31
0.0
  0
LINE
  5
A0
330
1F
100
AcDbEntity
  8
0
100
AcDbLine
 10
-0.5825350451480356
 20
1.00091865009329
 30
0.0
 11
-0.4746067485692969
 21
1.183415433054115
 31
0.0
  0
LINE
  5
A1
330
1F
100
AcDbEntity
  8
0
100
AcDbLine
 10
-0.6787913020728125
 20
0.8120051090321212
 30
0.0
 11
-0.5825350451480356
 21
1.00091865009329
 31
0.0
  0
LINE
  5
A2
330
1F
100
AcDbEntity
  8
0
100
AcDbLine
 10
-0.7629956398728459
 20
0.6174203653107924
 30
0.0
 11
-0.6787913020728125
 21
0.8120051090321212
 31
0.0
  0
LINE
  5
A3
330
1F
100
AcDbEntity
  8
0
100
AcDbLine
 10
-0.8348157424961404
 20
0.4179323560154486
 30
0.0
 11
-0.7629956398728459
 21
0.6174203653107924
 31
0.0
  0
LINE
  5
A4
330
1F
100
AcDbEntity
  8
0
100
AcDbLine
 10
-0.8939681688091272
 20
0.2143283691813878
 30
0.0
 11
-0.8348157424961404
 21
0.4179323560154486
 31
0.0
  0
LINE
  5
A5
330
1F
100
AcDbEntity
  8
0
100
AcDbLine
 10
-0.9402194712093226
 20
0.0074119367268253
 30
0.0
 11
-0.8939681688091272
 21
0.2143283691813878
 31
0.0
  0
LINE
  5
A6
330
1F
100
AcDbEntity
  8
0
100
AcDbLine
 10
-0.9733871169363613
 20
-0.2020003367204737
 30
0.0
 11
-0.9402194712093226
 21
0.0074119367268253
 31
0.0
  0
LINE
  5
A7
330
1F
100
AcDbEntity
  8
0
100
AcDbLine
 10
-0.993340208445415
 20
-0.4130819965885664
 30
0.0
 11
-0.9733871169363613
 21
-0.2020003367204737
 31
0.0
  0
LINE
  5
A8
330
1F
100
AcDbEntity
  8
0
100
AcDbLine
 10
-0.9999999999999987
 20
-0.625
 30
0.0
 11
-0.993340208445415
 21
-0.4130819965885664
 31
0.0
  0
LINE
  5
A9
330
1F
100
AcDbEntity
  8
0
100
AcDbLine
 10
-0.993340208445415
 20
-0.8369180034114336
 30
0.0
 11
-0.9999999999999987
 21
-0.625
 31
0.0
  0
LINE
  5
AA
330
1F
100
AcDbEntity
  8
0
100
AcDbLine
 10
-0.9733871169363617
 20
-1.047999663279526
 30
0.0
 11
-0.993340208445415
 21
-0.8369180034114336
 31
0.0
  0
LINE
  5
AB
330
1F
100
AcDbEntity
  8
0
100
AcDbLine
 10
-0.940219471209323
 20
-1.257411936726818
 30
0.0
 11
-0.9733871169363617
 21
-1.047999663279526
 31
0.0
  0
LINE
  5
AC
330
1F
100
AcDbEntity
  8
0
100
AcDbLine
 10
-0.8939681688091294
 20
-1.464328369181381
 30
0.0
 11
-0.940219471209323
 21
-1.257411936726818
 31
0.0
  0
LINE
  5
AD
330
1F
100
AcDbEntity
  8
0
100
AcDbLine
 10
-0.8348157424961427
 20
-1.667932356015449
 30
0.0
 11
-0.8939681688091294
 21
-1.464328369181381
 31
0.0
  0
LINE
  5
AE
330
1F
100
AcDbEntity
  8
0
100
AcDbLine
 10
-0.7629956398728472
 20
-1.867420365310785
 30
0.0
 11
-0.8348157424961427
 21
-1.667932356015449
 31
0.0
  0
LINE
  5
AF
330
1F
100
AcDbEntity
  8
0
100
AcDbLine
 10
-0.6787913020728151
 20
-2.062005109032121
 30
0.0
 11
-0.7629956398728472
 21
-1.867420365310785
 31
0.0
  0
LINE
  5
B0
330
1F
100
AcDbEntity
  8
0
100
AcDbLine
 10
-0.5825350451480383
 20
-2.25091865009329
 30
0.0
 11
-0.6787913020728151
 21
-2.062005109032121
 31
0.0
  0
LINE
  5
B1
330
1F
100
AcDbEntity
  8
0
100
AcDbLine
 10
-0.4746067485692996
 20
-2.433415433054115
 30
0.0
 11
-0.5825350451480383
 21
-2.25091865009329
 31
0.0
  0
LINE
  5
B2
330
1F
100
AcDbEntity
  8
0
100
AcDbLine
 10
-0.3554323560154464
 20
-2.608775226487097
 30
0.0
 11
-0.4746067485692996
 21
-2.433415433054115
 31
0.0
  0
LINE
  5
B3
330
1F
100
AcDbEntity
  8
0
100
AcDbLine
 10
-0.2254821943682876
 20
-2.776305965401825
 30
0.0
 11
-0.3554323560154464
 21
-2.608775226487097
 31
0.0
  0
LINE
  5
B4
330
1F
100
AcDbEntity
  8
0
100
AcDbLine
 10
-0.0852691175472633
 20
-2.935346482509324
 30
0.0
 11
-0.2254821943682876
 21
-2.776305965401825
 31
0.0
  0
LINE
  5
B5
330
1F
100
AcDbEntity
  8
0
100
AcDbLine
 10
0.0646535174906764
 20
-3.085269117547263
 30
0.0
 11
-0.0852691175472633
 21
-2.935346482509324
 31
0.0
  0
LINE
  5
B6
330
1F
100
AcDbEntity
  8
0
100
AcDbLine
 10
0.2236940345981728
 20
-3.22548219436829
 30
0.0
 11
0.0646535174906764
 21
-3.085269117547263
 31
0.0
  0
LINE
  5
B7
330
1F
100
AcDbEntity
  8
0
100
AcDbLine
 10
0.3912247735129033
 20
-3.355432356015449
 30
0.0
 11
0.2236940345981728
 21
-3.22548219436829
 31
0.0
  0
LINE
  5
B8
330
1F
100
AcDbEntity
  8
0
100
AcDbLine
 10
0.5665845669458869
 20
-3.4746067485693
 30
0.0
 11
0.3912247735129033
 21
-3.355432356015449
 31
0.0
  0
LINE
  5
B9
330
1F
100
AcDbEntity
  8
0
100
AcDbLine
 10
0.749081349906711
 20
-3.582535045148042
 30
0.0
 11
0.5665845669458869
 21
-3.4746067485693
 31
0.0
  0
LINE
  5
BA
330
1F
100
AcDbEntity
  8
0
100
AcDbLine
 10
0.9379948909678797
 20
-3.678791302072817
 30
0.0
 11
0.749081349906711
 21
-3.582535045148042
 31
0.0
  0
LINE
  5
BB
330
1F
100
AcDbEntity
  8
0
100
AcDbLine
 10
1.132579634689211
 20
-3.762995639872848
 30
0.0
 11
0.9379948909678797
 21
-3.678791302072817
 31
0.0
  0
LINE
  5
BC
330
1F
100
AcDbEntity
  8
0
100
AcDbLine
 10
1.332067643984552
 20
-3.83481574249614
 30
0.0
 11
1.132579634689211
 21
-3.762995639872848
 31
0.0
  0
LINE
  5
BD
330
1F
100
AcDbEntity
  8
0
100
AcDbLine
 10
1.535671630818614
 20
-3.893968168809132
 30
0.0
 11
1.332067643984552
 21
-3.83481574249614
 31
0.0
  0
LINE
  5
BE
330
1F
100
AcDbEntity
  8
0
100
AcDbLine
 10
1.742588063273178
 20
-3.940219471209325
 30
0.0
 11
1.535671630818614
 21
-3.893968168809132
 31
0.0
  0
LINE
  5
BF
330
1F
100
AcDbEntity
  8
0
100
AcDbLine
 10
1.952000336720473
 20
-3.973387116936366
 30
0.0
 11
1.742588063273178
 21
-3.940219471209325
 31
0.0
  0
LINE
  5
C0
330
1F
100
AcDbEntity
  8
0
100
AcDbLine
 10
2.163081996588566
 20
-3.993340208445418
 30
0.0
 11
1.952000336720473
 21
-3.973387116936366
 31
0.0
  0
LINE
  5
C1
330
1F
100
AcDbEntity
  8
0
100
AcDbLine
 10
2.374999999999999
 20
-4.000000000000001
 30
0.0
 11
2.163081996588566
 21
-3.993340208445418
 31
0.0
  0
LINE
  5
C2
330
1F
100
AcDbEntity
  8
0
100
AcDbLine
 10
2.874999999999999
 20
2.749999999999999
 30
0.0
 11
2.906395259764656
 21
2.750986635785863
 31
0.0
  0
LINE
  5
C3
330
1F
100
AcDbEntity
  8
0
100
AcDbLine
 10
2.906395259764656
 20
2.750986635785863
 30
0.0
 11
2.937666616782152
 21
2.75394264934276
 31
0.0
  0
LINE
  5
C4
330
1F
100
AcDbEntity
  8
0
100
AcDbLine
 10
2.937666616782152
 20
2.75394264934276
 30
0.0
 11
2.968690657292862
 21
2.758856374635655
 31
0.0
  0
LINE
  5
C5
330
1F
100
AcDbEntity
  8
0
100
AcDbLine
 10
2.968690657292862
 20
2.758856374635655
 30
0.0
 11
2.999344943582426
 21
2.765708419435682
 31
0.0
  0
LINE
  5
C6
330
1F
100
AcDbEntity
  8
0
100
AcDbLine
 10
2.999344943582426
 20
2.765708419435682
 30
0.0
 11
3.029508497187472
 21
2.774471741852422
 31
0.0
  0
LINE
  5
C7
330
1F
100
AcDbEntity
  8
0
100
AcDbLine
 10
3.029508497187472
 20
2.774471741852422
 30
0.0
 11
3.059062276342338
 21
2.785111757055872
 31
0.0
  0
LINE
  5
C8
330
1F
100
AcDbEntity
  8
0
100
AcDbLine
 10
3.059062276342338
 20
2.785111757055872
 30
0.0
 11
3.087889645782536
 21
2.79758647376699
 31
0.0
  0
LINE
  5
C9
330
1F
100
AcDbEntity
  8
0
100
AcDbLine
 10
3.087889645782536
 20
2.79758647376699
 30
0.0
 11
3.115876837050856
 21
2.811846659978065
 31
0.0
  0
LINE
  5
CA
330
1F
100
AcDbEntity
  8
0
100
AcDbLine
 10
3.115876837050856
 20
2.811846659978065
 30
0.0
 11
3.142913397489497
 21
2.827836037248992
 31
0.0
  0
LINE
  5
CB
330
1F
100
AcDbEntity
  8
0
100
AcDbLine
 10
3.142913397489497
 20
2.827836037248992
 30
0.0
 11
3.168892626146236
 21
2.845491502812528
 31
0.0
  0
LINE
  5
CC
330
1F
100
AcDbEntity
  8
0
100
AcDbLine
 10
3.168892626146236
 20
2.845491502812528
 30
0.0
 11
3.193711994874344
 21
2.864743378612103
 31
0.0
  0
LINE
  5
CD
330
1F
100
AcDbEntity
  8
0
100
AcDbLine
 10
3.193711994874344
 20
2.864743378612103
 30
0.0
 11
3.217273552964343
 21
2.885515686289295
 31
0.0
  0
LINE
  5
CE
330
1F
100
AcDbEntity
  8
0
100
AcDbLine
 10
3.217273552964343
 20
2.885515686289295
 30
0.0
 11
3.239484313710705
 21
2.907726447035656
 31
0.0
  0
LINE
  5
CF
330
1F
100
AcDbEntity
  8
0
100
AcDbLine
 10
3.239484313710705
 20
2.907726447035656
 30
0.0
 11
3.260256621387893
 21
2.931288005125658
 31
0.0
  0
LINE
  5
D0
330
1F
100
AcDbEntity
  8
0
100
AcDbLine
 10
3.260256621387893
 20
2.931288005125658
 30
0.0
 11
3.279508497187472
 21
2.956107373853761
 31
0.0
  0
LINE
  5
D1
330
1F
100
AcDbEntity
  8
0
100
AcDbLine
 10
3.279508497187472
 20
2.956107373853761
 30
0.0
 11
3.297163962751006
 21
2.982086602510498
 31
0.0
  0
LINE
  5
D2
330
1F
100
AcDbEntity
  8
0
100
AcDbLine
 10
3.297163962751006
 20
2.982086602510498
 30
0.0
 11
3.313153340021931
 21
3.009123162949144
 31
0.0
  0
LINE
  5
D3
330
1F
100
AcDbEntity
  8
0
100
AcDbLine
 10
3.313153340021931
 20
3.009123162949144
 30
0.0
 11
3.327413526233009
 21
3.03711035421746
 31
0.0
  0
LINE
  5
D4
330
1F
100
AcDbEntity
  8
0
100
AcDbLine
 10
3.327413526233009
 20
3.03711035421746
 30
0.0
 11
3.339888242944125
 21
3.065937723657661
 31
0.0
  0
LINE
  5
D5
330
1F
100
AcDbEntity
  8
0
100
AcDbLine
 10
3.339888242944125
 20
3.065937723657661
 30
0.0
 11
3.350528258147576
 21
3.095491502812528
 31
0.0
  0
LINE
  5
D6
330
1F
100
AcDbEntity
  8
0
100
AcDbLine
 10
3.350528258147576
 20
3.095491502812528
 30
0.0
 11
3.359291580564315
 21
3.12565505641757
 31
0.0
  0
LINE
  5
D7
330
1F
100
AcDbEntity
  8
0
100
AcDbLine
 10
3.359291580564315
 20
3.12565505641757
 30
0.0
 11
3.366143625364344
 21
3.156309342707138
 31
0.0
  0
LINE
  5
D8
330
1F
100
AcDbEntity
  8
0
100
AcDbLine
 10
3.366143625364344
 20
3.156309342707138
 30
0.0
 11
3.371057350657238
 21
3.187333383217847
 31
0.0
  0
LINE
  5
D9
330
1F
100
AcDbEntity
  8
0
100
AcDbLine
 10
3.371057350657238
 20
3.187333383217847
 30
0.0
 11
3.374013364214135
 21
3.218604740235341
 31
0.0
  0
LINE
  5
DA
330
1F
100
AcDbEntity
  8
0
100
AcDbLine
 10
3.374013364214135
 20
3.218604740235341
 30
0.0
 11
3.375
 21
3.249999999999999
 31
0.0
  0
LINE
  5
DB
330
1F
100
AcDbEntity
  8
0
100
AcDbLine
 10
2.875000000000001
 20
-5.000000000000001
 30
0.0
 11
2.906395259764658
 21
-4.999013364214137
 31
0.0
  0
LINE
  5
DC
330
1F
100
AcDbEntity
  8
0
100
AcDbLine
 10
2.906395259764658
 20
-4.999013364214137
 30
0.0
 11
2.937666616782153
 21
-4.99605735065724
 31
0.0
  0
LINE
  5
DD
330
1F
100
AcDbEntity
  8
0
100
AcDbLine
 10
2.937666616782153
 20
-4.99605735065724
 30
0.0
 11
2.968690657292863
 21
-4.991143625364345
 31
0.0
  0
LINE
  5
DE
330
1F
100
AcDbEntity
  8
0
100
AcDbLine
 10
2.968690657292863
 20
-4.991143625364345
 30
0.0
 11
2.999344943582428
 21
-4.984291580564315
 31
0.0
  0
LINE
  5
DF
330
1F
100
AcDbEntity
  8
0
100
AcDbLine
 10
2.999344943582428
 20
-4.984291580564315
 30
0.0
 11
3.029508497187474
 21
-4.975528258147578
 31
0.0
  0
LINE
  5
E0
330
1F
100
AcDbEntity
  8
0
100
AcDbLine
 10
3.029508497187474
 20
-4.975528258147578
 30
0.0
 11
3.05906227634234
 21
-4.964888242944128
 31
0.0
  0
LINE
  5
E1
330
1F
100
AcDbEntity
  8
0
100
AcDbLine
 10
3.05906227634234
 20
-4.964888242944128
 30
0.0
 11
3.087889645782537
 21
-4.95241352623301
 31
0.0
  0
LINE
  5
E2
330
1F
100
AcDbEntity
  8
0
100
AcDbLine
 10
3.087889645782537
 20
-4.95241352623301
 30
0.0
 11
3.115876837050858
 21
-4.938153340021931
 31
0.0
  0
LINE
  5
E3
330
1F
100
AcDbEntity
  8
0
100
AcDbLine
 10
3.115876837050858
 20
-4.938153340021931
 30
0.0
 11
3.142913397489499
 21
-4.922163962751008
 31
0.0
  0
LINE
  5
E4
330
1F
100
AcDbEntity
  8
0
100
AcDbLine
 10
3.142913397489499
 20
-4.922163962751008
 30
0.0
 11
3.168892626146238
 21
-4.904508497187476
 31
0.0
  0
LINE
  5
E5
330
1F
100
AcDbEntity
  8
0
100
AcDbLine
 10
3.168892626146238
 20
-4.904508497187476
 30
0.0
 11
3.193711994874346
 21
-4.885256621387897
 31
0.0
  0
LINE
  5
E6
330
1F
100
AcDbEntity
  8
0
100
AcDbLine
 10
3.193711994874346
 20
-4.885256621387897
 30
0.0
 11
3.217273552964345
 21
-4.864484313710705
 31
0.0
  0
LINE
  5
E7
330
1F
100
AcDbEntity
  8
0
100
AcDbLine
 10
3.217273552964345
 20
-4.864484313710705
 30
0.0
 11
3.239484313710706
 21
-4.842273552964344
 31
0.0
  0
LINE
  5
E8
330
1F
100
AcDbEntity
  8
0
100
AcDbLine
 10
3.239484313710706
 20
-4.842273552964344
 30
0.0
 11
3.260256621387895
 21
-4.818711994874346
 31
0.0
  0
LINE
  5
E9
330
1F
100
AcDbEntity
  8
0
100
AcDbLine
 10
3.260256621387895
 20
-4.818711994874346
 30
0.0
 11
3.279508497187474
 21
-4.793892626146236
 31
0.0
  0
LINE
  5
EA
330
1F
100
AcDbEntity
  8
0
100
AcDbLine
 10
3.279508497187474
 20
-4.793892626146236
 30
0.0
 11
3.297163962751008
 21
-4.767913397489498
 31
0.0
  0
LINE
  5
EB
330
1F
100
AcDbEntity
  8
0
100
AcDbLine
 10
3.297163962751008
 20
-4.767913397489498
 30
0.0
 11
3.313153340021933
 21
-4.74087683705086
 31
0.0
  0
LINE
  5
EC
330
1F
100
AcDbEntity
  8
0
100
AcDbLine
 10
3.313153340021933
 20
-4.74087683705086
 30
0.0
 11
3.327413526233011
 21
-4.712889645782536
 31
0.0
  0
LINE
  5
ED
330
1F
100
AcDbEntity
  8
0
100
AcDbLine
 10
3.327413526233011
 20
-4.712889645782536
 30
0.0
 11
3.339888242944126
 21
-4.684062276342339
 31
0.0
  0
LINE
  5
EE
330
1F
100
AcDbEntity
  8
0
100
AcDbLine
 10
3.339888242944126
 20
-4.684062276342339
 30
0.0
 11
3.350528258147578
 21
-4.654508497187476
 31
0.0
  0
LINE
  5
EF
330
1F
100
AcDbEntity
  8
0
100
AcDbLine
 10
3.350528258147578
 20
-4.654508497187476
 30
0.0
 11
3.359291580564316
 21
-4.62434494358243
 31
0.0
  0
LINE
  5
F0
330
1F
100
AcDbEntity
  8
0
100
AcDbLine
 10
3.359291580564316
 20
-4.62434494358243
 30
0.0
 11
3.366143625364345
 21
-4.593690657292862
 31
0.0
  0
LINE
  5
F1
330
1F
100
AcDbEntity
  8
0
100
AcDbLine
 10
3.366143625364345
 20
-4.593690657292862
 30
0.0
 11
3.37105735065724
 21
-4.562666616782153
 31
0.0
  0
LINE
  5
F2
330
1F
100
AcDbEntity
  8
0
100
AcDbLine
 10
3.37105735065724
 20
-4.562666616782153
 30
0.0
 11
3.374013364214137
 21
-4.531395259764659
 31
0.0
  0
LINE
  5
F3
330
1F
100
AcDbEntity
  8
0
100
AcDbLine
 10
3.374013364214137
 20
-4.531395259764659
 30
0.0
 11
3.375000000000001
 21
-4.500000000000001
 31
0.0
  0
LINE
  5
F4
330
1F
100
AcDbEntity
  8
0
100
AcDbLine
 10
3.375000000000001
 20
-4.500000000000001
 30
0.0
 11
3.374013364214137
 21
-4.468604740235343
 31
0.0
  0
LINE
  5
F5
330
1F
100
AcDbEntity
  8
0
100
AcDbLine
 10
3.374013364214137
 20
-4.468604740235343
 30
0.0
 11
3.37105735065724
 21
-4.437333383217848
 31
0.0
  0
LINE
  5
F6
330
1F
100
AcDbEntity
  8
0
100
AcDbLine
 10
3.37105735065724
 20
-4.437333383217848
 30
0.0
 11
3.366143625364345
 21
-4.406309342707137
 31
0.0
  0
LINE
  5
F7
330
1F
100
AcDbEntity
  8
0
100
AcDbLine
 10
3.366143625364345
 20
-4.406309342707137
 30
0.0
 11
3.359291580564316
 21
-4.375655056417572
 31
0.0
  0
LINE
  5
F8
330
1F
100
AcDbEntity
  8
0
100
AcDbLine
 10
3.359291580564316
 20
-4.375655056417572
 30
0.0
 11
3.350528258147578
 21
-4.345491502812529
 31
0.0
  0
LINE
  5
F9
330
1F
100
AcDbEntity
  8
0
100
AcDbLine
 10
3.350528258147578
 20
-4.345491502812529
 30
0.0
 11
3.339888242944126
 21
-4.315937723657663
 31
0.0
  0
LINE
  5
FA
330
1F
100
AcDbEntity
  8
0
100
AcDbLine
 10
3.339888242944126
 20
-4.315937723657663
 30
0.0
 11
3.32741352623301
 21
-4.287110354217462
 31
0.0
  0
LINE
  5
FB
330
1F
100
AcDbEntity
  8
0
100
AcDbLine
 10
3.32741352623301
 20
-4.287110354217462
 30
0.0
 11
3.313153340021932
 21
-4.259123162949146
 31
0.0
  0
LINE
  5
FC
330
1F
100
AcDbEntity
  8
0
100
AcDbLine
 10
3.313153340021932
 20
-4.259123162949146
 30
0.0
 11
3.297163962751008
 21
-4.2320866025105
 31
0.0
  0
LINE
  5
FD
330
1F
100
AcDbEntity
  8
0
100
AcDbLine
 10
3.297163962751008
 20
-4.2320866025105
 30
0.0
 11
3.279508497187474
 21
-4.206107373853762
 31
0.0
  0
LINE
  5
FE
330
1F
100
AcDbEntity
  8
0
100
AcDbLine
 10
3.279508497187474
 20
-4.206107373853762
 30
0.0
 11
3.260256621387895
 21
-4.181288005125652
 31
0.0
  0
LINE
  5
FF
330
1F
100
AcDbEntity
  8
0
100
AcDbLine
 10
3.260256621387895
 20
-4.181288005125652
 30
0.0
 11
3.239484313710706
 21
-4.157726447035658
 31
0.0
  0
LINE
  5
100
330
1F
100
AcDbEntity
  8
0
100
AcDbLine
 10
3.239484313710706
 20
-4.157726447035658
 30
0.0
 11
3.217273552964345
 21
-4.135515686289296
 31
0.0
  0
LINE
  5
101
330
1F
100
AcDbEntity
  8
0
100
AcDbLine
 10
3.217273552964345
 20
-4.135515686289296
 30
0.0
 11
3.193711994874345
 21
-4.114743378612105
 31
0.0
  0
LINE
  5
102
330
1F
100
AcDbEntity
  8
0
100
AcDbLine
 10
3.193711994874345
 20
-4.114743378612105
 30
0.0
 11
3.168892626146237
 21
-4.095491502812529
 31
0.0
  0
LINE
  5
103
330
1F
100
AcDbEntity
  8
0
100
AcDbLine
 10
3.168892626146237
 20
-4.095491502812529
 30
0.0
 11
3.142913397489498
 21
-4.077836037248994
 31
0.0
  0
LINE
  5
104
330
1F
100
AcDbEntity
  8
0
100
AcDbLine
 10
3.142913397489498
 20
-4.077836037248994
 30
0.0
 11
3.115876837050858
 21
-4.061846659978067
 31
0.0
  0
LINE
  5
105
330
1F
100
AcDbEntity
  8
0
100
AcDbLine
 10
3.115876837050858
 20
-4.061846659978067
 30
0.0
 11
3.087889645782536
 21
-4.047586473766992
 31
0.0
  0
LINE
  5
106
330
1F
100
AcDbEntity
  8
0
100
AcDbLine
 10
3.087889645782536
 20
-4.047586473766992
 30
0.0
 11
3.059062276342339
 21
-4.035111757055874
 31
0.0
  0
LINE
  5
107
330
1F
100
AcDbEntity
  8
0
100
AcDbLine
 10
3.059062276342339
 20
-4.035111757055874
 30
0.0
 11
3.029508497187473
 21
-4.024471741852424
 31
0.0
  0
LINE
  5
108
330
1F
100
AcDbEntity
  8
0
100
AcDbLine
 10
3.029508497187473
 20
-4.024471741852424
 30
0.0
 11
2.999344943582427
 21
-4.015708419435684
 31
0.0
  0
LINE
  5
109
330
1F
100
AcDbEntity
  8
0
100
AcDbLine
 10
2.999344943582427
 20
-4.015708419435684
 30
0.0
 11
2.968690657292862
 21
-4.008856374635656
 31
0.0
  0
LINE
  5
10A
330
1F
100
AcDbEntity
  8
0
100
AcDbLine
 10
2.968690657292862
 20
-4.008856374635656
 30
0.0
 11
2.937666616782152
 21
-4.003942649342762
 31
0.0
  0
LINE
  5
10B
330
1F
100
AcDbEntity
  8
0
100
AcDbLine
 10
2.937666616782152
 20
-4.003942649342762
 30
0.0
 11
2.906395259764657
 21
-4.000986635785865
 31
0.0
  0
LINE
  5
10C
330
1F
100
AcDbEntity
  8
0
100
AcDbLine
 10
2.906395259764657
 20
-4.000986635785865
 30
0.0
 11
2.875000000000001
 21
-4.000000000000001
 31
0.0
  0
LINE
  5
10D
330
1F
100
AcDbEntity
  8
0
100
AcDbLine
 10
2.374999999999999
 20
-4.000000000000001
 30
0.0
 11
2.875000000000001
 21
-4.000000000000001
 31
0.0
  0
LINE
  5
10E
330
1F
100
AcDbEntity
  8
0
100
AcDbLine
 10
2.875000000000001
 20
-5.000000000000001
 30
0.0
 11
2.374999999999999
 21
-5.000000000000001
 31
0.0
  0
LINE
  5
10F
330
1F
100
AcDbEntity
  8
0
100
AcDbLine
 10
2.374999999999999
 20
-5.000000000000001
 30
0.0
 11
2.159660401070334
 21
-4.994697227169497
 31
0.0
  0
LINE
  5
110
330
1F
100
AcDbEntity
  8
0
100
AcDbLine
 10
2.159660401070334
 20
-4.994697227169497
 30
0.0
 11
1.944842812186169
 21
-4.978801763260712
 31
0.0
  0
LINE
  5
111
330
1F
100
AcDbEntity
  8
0
100
AcDbLine
 10
1.944842812186169
 20
-4.978801763260712
 30
0.0
 11
1.731067977975553
 21
-4.952352140860675
 31
0.0
  0
LINE
  5
112
330
1F
100
AcDbEntity
  8
0
100
AcDbLine
 10
1.731067977975553
 20
-4.952352140860675
 30
0.0
 11
1.518854115299145
 21
-4.915412477152955
 31
0.0
  0
LINE
  5
113
330
1F
100
AcDbEntity
  8
0
100
AcDbLine
 10
1.518854115299145
 20
-4.915412477152955
 30
0.0
 11
1.308715657027919
 21
-4.868072318489585
 31
0.0
  0
LINE
  5
114
330
1F
100
AcDbEntity
  8
0
100
AcDbLine
 10
1.308715657027919
 20
-4.868072318489585
 30
0.0
 11
1.101162004993721
 21
-4.810446423319544
 31
0.0
  0
LINE
  5
115
330
1F
100
AcDbEntity
  8
0
100
AcDbLine
 10
1.101162004993721
 20
-4.810446423319544
 30
0.0
 11
0.8966962951356967
 21
-4.742674483999973
 31
0.0
  0
LINE
  5
116
330
1F
100
AcDbEntity
  8
0
100
AcDbLine
 10
0.8966962951356967
 20
-4.742674483999973
 30
0.0
 11
0.6958141778360192
 21
-4.664920788164473
 31
0.0
  0
LINE
  5
117
330
1F
100
AcDbEntity
  8
0
100
AcDbLine
 10
0.6958141778360192
 20
-4.664920788164473
 30
0.0
 11
0.4990026164015449
 21
-4.577373820469383
 31
0.0
  0
LINE
  5
118
330
1F
100
AcDbEntity
  8
0
100
AcDbLine
 10
0.4990026164015449
 20
-4.577373820469383
 30
0.0
 11
0.3067387066040252
 21
-4.48024580568347
 31
0.0
  0
LINE
  5
119
330
1F
100
AcDbEntity
  8
0
100
AcDbLine
 10
0.3067387066040252
 20
-4.48024580568347
 30
0.0
 11
0.1194885201404459
 21
-4.373772194228632
 31
0.0
  0
LINE
  5
11A
330
1F
100
AcDbEntity
  8
0
100
AcDbLine
 10
0.1194885201404459
 20
-4.373772194228632
 30
0.0
 11
-0.0622940251828892
 21
-4.258211091418687
 31
0.0
  0
LINE
  5
11B
330
1F
100
AcDbEntity
  8
0
100
AcDbLine
 10
-0.0622940251828892
 20
-4.258211091418687
 30
0.0
 11
-0.2381682658037425
 21
-4.13384263177992
 31
0.0
  0
LINE
  5
11C
330
1F
100
AcDbEntity
  8
0
100
AcDbLine
 10
-0.2381682658037425
 20
-4.13384263177992
 30
0.0
 11
-0.4077078606273696
 21
-4.00096829997004
 31
0.0
  0
LINE
  5
11D
330
1F
100
AcDbEntity
  8
0
100
AcDbLine
 10
-0.4077078606273696
 20
-4.00096829997004
 30
0.0
 11
-0.5705018245305142
 21
-3.859910199941786
 31
0.0
  0
LINE
  5
11E
330
1F
100
AcDbEntity
  8
0
100
AcDbLine
 10
-0.5705018245305142
 20
-3.859910199941786
 30
0.0
 11
-0.726155524640602
 21
-3.711010274122728
 31
0.0
  0
LINE
  5
11F
330
1F
100
AcDbEntity
  8
0
100
AcDbLine
 10
-0.726155524640602
 20
-3.711010274122728
 30
0.0
 11
-0.8742916369750469
 21
-3.554629474504238
 31
0.0
  0
LINE
  5
120
330
1F
100
AcDbEntity
  8
0
100
AcDbLine
 10
-0.8742916369750469
 20
-3.554629474504238
 30
0.0
 11
-1.01455106112164
 21
-3.391146887648801
 31
0.0
  0
LINE
  5
121
330
1F
100
AcDbEntity
  8
0
100
AcDbLine
 10
-1.01455106112164
 20
-3.391146887648801
 30
0.0
 11
-1.146593790742743
 21
-3.220958815736899
 31
0.0
  0
LINE
  5
122
330
1F
100
AcDbEntity
  8
0
100
AcDbLine
 10
-1.146593790742743
 20
-3.220958815736899
 30
0.0
 11
-1.270099737793052
 21
-3.044477815881144
 31
0.0
  0
LINE
  5
123
330
1F
100
AcDbEntity
  8
0
100
AcDbLine
 10
-1.270099737793052
 20
-3.044477815881144
 30
0.0
 11
-1.384769508452947
 21
-2.862131700036336
 31
0.0
  0
LINE
  5
124
330
1F
100
AcDbEntity
  8
0
100
AcDbLine
 10
-1.384769508452947
 20
-2.862131700036336
 30
0.0
 11
-1.490325128896443
 21
-2.674362497929948
 31
0.0
  0
LINE
  5
125
330
1F
100
AcDbEntity
  8
0
100
AcDbLine
 10
-1.490325128896443
 20
-2.674362497929948
 30
0.0
 11
-1.586510719134423
 21
-2.481625385526932
 31
0.0
  0
LINE
  5
126
330
1F
100
AcDbEntity
  8
0
100
AcDbLine
 10
-1.586510719134423
 20
-2.481625385526932
 30
0.0
 11
-1.673093113299645
 21
-2.284387581626418
 31
0.0
  0
LINE
  5
127
330
1F
100
AcDbEntity
  8
0
100
AcDbLine
 10
-1.673093113299645
 20
-2.284387581626418
 30
0.0
 11
-1.749862424869876
 21
-2.083127215265044
 31
0.0
  0
LINE
  5
128
330
1F
100
AcDbEntity
  8
0
100
AcDbLine
 10
-1.749862424869876
 20
-2.083127215265044
 30
0.0
 11
-1.816632555459007
 21
-1.878332166672578
 31
0.0
  0
LINE
  5
129
330
1F
100
AcDbEntity
  8
0
100
AcDbLine
 10
-1.816632555459007
 20
-1.878332166672578
 30
0.0
 11
-1.873241645942753
 21
-1.670498884589356
 31
0.0
  0
LINE
  5
12A
330
1F
100
AcDbEntity
  8
0
100
AcDbLine
 10
-1.873241645942753
 20
-1.670498884589356
 30
0.0
 11
-1.919552468825354
 21
-1.460131182812638
 31
0.0
  0
LINE
  5
12B
330
1F
100
AcDbEntity
  8
0
100
AcDbLine
 10
-1.919552468825354
 20
-1.460131182812638
 30
0.0
 11
-1.955452760896139
 21
-1.24773901888912
 31
0.0
  0
LINE
  5
12C
330
1F
100
AcDbEntity
  8
0
100
AcDbLine
 10
-1.955452760896139
 20
-1.24773901888912
 30
0.0
 11
-1.980855495369554
 21
-1.033837257914243
 31
0.0
  0
LINE
  5
12D
330
1F
100
AcDbEntity
  8
0
100
AcDbLine
 10
-1.980855495369554
 20
-1.033837257914243
 30
0.0
 11
-1.995699092848942
 21
-0.8189444244349664
 31
0.0
  0
LINE
  5
12E
330
1F
100
AcDbEntity
  8
0
100
AcDbLine
 10
-1.995699092848942
 20
-0.8189444244349664
 30
0.0
 11
-1.999947570602683
 21
-0.6035814454816295
 31
0.0
  0
LINE
  5
12F
330
1F
100
AcDbEntity
  8
0
100
AcDbLine
 10
-1.999947570602683
 20
-0.6035814454816295
 30
0.0
 11
-1.993590629790821
 21
-0.388270387775818
 31
0.0
  0
LINE
  5
130
330
1F
100
AcDbEntity
  8
0
100
AcDbLine
 10
-1.993590629790821
 20
-0.388270387775818
 30
0.0
 11
-1.976643680430738
 21
-0.1735331921755465
 31
0.0
  0
LINE
  5
131
330
1F
100
AcDbEntity
  8
0
100
AcDbLine
 10
-1.976643680430738
 20
-0.1735331921755465
 30
0.0
 11
-1.949147804041348
 21
0.0401095915744785
 31
0.0
  0
LINE
  5
132
330
1F
100
AcDbEntity
  8
0
100
AcDbLine
 10
-1.949147804041348
 20
0.0401095915744785
 30
0.0
 11
-1.911169654056373
 21
0.2521400667203872
 31
0.0
  0
LINE
  5
133
330
1F
100
AcDbEntity
  8
0
100
AcDbLine
 10
-1.911169654056373
 20
0.2521400667203872
 30
0.0
 11
-1.862801294248109
 21
0.4620442449454538
 31
0.0
  0
LINE
  5
134
330
1F
100
AcDbEntity
  8
0
100
AcDbLine
 10
-1.862801294248109
 20
0.4620442449454538
 30
0.0
 11
-1.804159975553355
 21
0.6693132923418768
 31
0.0
  0
LINE
  5
135
330
1F
100
AcDbEntity
  8
0
100
AcDbLine
 10
-1.804159975553355
 20
0.6693132923418768
 30
0.0
 11
-1.735387851842517
 21
0.8734447628876518
 31
0.0
  0
LINE
  5
136
330
1F
100
AcDbEntity
  8
0
100
AcDbLine
 10
-1.735387851842517
 20
0.8734447628876518
 30
0.0
 11
-1.656651635320904
 21
1.073943816438394
 31
0.0
  0
LINE
  5
137
330
1F
100
AcDbEntity
  8
0
100
AcDbLine
 10
-1.656651635320904
 20
1.073943816438394
 30
0.0
 11
-1.568142192397544
 21
1.27032441828154
 31
0.0
  0
LINE
  5
138
330
1F
100
AcDbEntity
  8
0
100
AcDbLine
 10
-1.568142192397544
 20
1.27032441828154
 30
0.0
 11
-1.470074081001201
 21
1.462110517345153
 31
0.0
  0
LINE
  5
139
330
1F
100
AcDbEntity
  8
0
100
AcDbLine
 10
-1.470074081001201
 20
1.462110517345153
 30
0.0
 11
-1.362685030465203
 21
1.648837200205044
 31
0.0
  0
LINE
  5
13A
330
1F
100
AcDbEntity
  8
0
100
AcDbLine
 10
-1.362685030465203
 20
1.648837200205044
 30
0.0
 11
-1.246235365241882
 21
1.83005181809294
 31
0.0
  0
LINE
  5
13B
330
1F
100
AcDbEntity
  8
0
100
AcDbLine
 10
-2.874999999999999
 20
2.750000000000001
 30
0.0
 11
-2.918577871373828
 21
2.75190265095413
 31
0.0
  0
LINE
  5
13C
330
1F
100
AcDbEntity
  8
0
100
AcDbLine
 10
-2.918577871373828
 20
2.75190265095413
 30
0.0
 11
-2.961824088833466
 21
2.757596123493898
 31
0.0
  0
LINE
  5
13D
330
1F
100
AcDbEntity
  8
0
100
AcDbLine
 10
-2.961824088833466
 20
2.757596123493898
 30
0.0
 11
-3.004409522551259
 21
2.767037086855468
 31
0.0
  0
LINE
  5
13E
330
1F
100
AcDbEntity
  8
0
100
AcDbLine
 10
-3.004409522551259
 20
2.767037086855468
 30
0.0
 11
-3.046010071662834
 21
2.780153689607048
 31
0.0
  0
LINE
  5
13F
330
1F
100
AcDbEntity
  8
0
100
AcDbLine
 10
-3.046010071662834
 20
2.780153689607048
 30
0.0
 11
-3.086309130870348
 21
2.796846106481675
 31
0.0
  0
LINE
  5
140
330
1F
100
AcDbEntity
  8
0
100
AcDbLine
 10
-3.086309130870348
 20
2.796846106481675
 30
0.0
 11
-3.124999999999999
 21
2.816987298107784
 31
0.0
  0
LINE
  5
141
330
1F
100
AcDbEntity
  8
0
100
AcDbLine
 10
-3.124999999999999
 20
2.816987298107784
 30
0.0
 11
-3.161788218175524
 21
2.840423977855509
 31
0.0
  0
LINE
  5
142
330
1F
100
AcDbEntity
  8
0
100
AcDbLine
 10
-3.161788218175524
 20
2.840423977855509
 30
0.0
 11
-3.196393804843271
 21
2.866977778440515
 31
0.0
  0
LINE
  5
143
330
1F
100
AcDbEntity
  8
0
100
AcDbLine
 10
-3.196393804843271
 20
2.866977778440515
 30
0.0
 11
-3.228553390593275
 21
2.896446609406724
 31
0.0
  0
LINE
  5
144
330
1F
100
AcDbEntity
  8
0
100
AcDbLine
 10
-3.228553390593275
 20
2.896446609406724
 30
0.0
 11
-3.25802222155949
 21
2.928606195156733
 31
0.0
  0
LINE
  5
145
330
1F
100
AcDbEntity
  8
0
100
AcDbLine
 10
-3.25802222155949
 20
2.928606195156733
 30
0.0
 11
-3.284576022144495
 21
2.963211781824477
 31
0.0
  0
LINE
  5
146
330
1F
100
AcDbEntity
  8
0
100
AcDbLine
 10
-3.284576022144495
 20
2.963211781824477
 30
0.0
 11
-3.308012701892219
 21
3.000000000000001
 31
0.0
  0
LINE
  5
147
330
1F
100
AcDbEntity
  8
0
100
AcDbLine
 10
-3.308012701892219
 20
3.000000000000001
 30
0.0
 11
-3.328153893518324
 21
3.038690869129653
 31
0.0
  0
LINE
  5
148
330
1F
100
AcDbEntity
  8
0
100
AcDbLine
 10
-3.328153893518324
 20
3.038690869129653
 30
0.0
 11
-3.344846310392954
 21
3.078989928337166
 31
0.0
  0
LINE
  5
149
330
1F
100
AcDbEntity
  8
0
100
AcDbLine
 10
-3.344846310392954
 20
3.078989928337166
 30
0.0
 11
-3.357962913144533
 21
3.120590477448745
 31
0.0
  0
LINE
  5
14A
330
1F
100
AcDbEntity
  8
0
100
AcDbLine
 10
-3.357962913144533
 20
3.120590477448745
 30
0.0
 11
-3.367403876506102
 21
3.163175911166534
 31
0.0
  0
LINE
  5
14B
330
1F
100
AcDbEntity
  8
0
100
AcDbLine
 10
-3.367403876506102
 20
3.163175911166534
 30
0.0
 11
-3.373097349045871
 21
3.206422128626174
 31
0.0
  0
LINE
  5
14C
330
1F
100
AcDbEntity
  8
0
100
AcDbLine
 10
-3.373097349045871
 20
3.206422128626174
 30
0.0
 11
-3.374999999999998
 21
3.250000000000001
 31
0.0
  0
LINE
  5
14D
330
1F
100
AcDbEntity
  8
0
100
AcDbLine
 10
-3.374999999999998
 20
3.250000000000001
 30
0.0
 11
-3.375000000000001
 21
3.734375000000001
 31
0.0
  0
LINE
  5
14E
330
1F
100
AcDbEntity
  8
0
100
AcDbLine
 10
-3.375000000000001
 20
3.734375000000001
 30
0.0
 11
-2.609375000000002
 21
3.734375000000001
 31
0.0
  0
LINE
  5
14F
330
1F
100
AcDbEntity
  8
0
100
AcDbLine
 10
-2.609375000000002
 20
3.734375000000001
 30
0.0
 11
-2.605115728286136
 21
3.702022619362183
 31
0.0
  0
LINE
  5
150
330
1F
100
AcDbEntity
  8
0
100
AcDbLine
 10
-2.605115728286136
 20
3.702022619362183
 30
0.0
 11
-2.592628175473057
 21
3.671875000000001
 31
0.0
  0
LINE
  5
151
330
1F
100
AcDbEntity
  8
0
100
AcDbLine
 10
-2.592628175473057
 20
3.671875000000001
 30
0.0
 11
-2.57276334764832
 21
3.645986652351682
 31
0.0
  0
LINE
  5
152
330
1F
100
AcDbEntity
  8
0
100
AcDbLine
 10
-2.57276334764832
 20
3.645986652351682
 30
0.0
 11
-2.546875000000002
 21
3.626121824526948
 31
0.0
  0
LINE
  5
153
330
1F
100
AcDbEntity
  8
0
100
AcDbLine
 10
-2.546875000000002
 20
3.626121824526948
 30
0.0
 11
-2.516727380637817
 21
3.613634271713864
 31
0.0
  0
LINE
  5
154
330
1F
100
AcDbEntity
  8
0
100
AcDbLine
 10
-2.516727380637817
 20
3.613634271713864
 30
0.0
 11
-2.484375000000002
 21
3.609375000000001
 31
0.0
  0
LINE
  5
155
330
1F
100
AcDbEntity
  8
0
100
AcDbLine
 10
-2.484375000000002
 20
3.609375000000001
 30
0.0
 11
-2.452022619362187
 21
3.613634271713864
 31
0.0
  0
LINE
  5
156
330
1F
100
AcDbEntity
  8
0
100
AcDbLine
 10
-2.452022619362187
 20
3.613634271713864
 30
0.0
 11
-2.421875000000002
 21
3.626121824526948
 31
0.0
  0
LINE
  5
157
330
1F
100
AcDbEntity
  8
0
100
AcDbLine
 10
-2.421875000000002
 20
3.626121824526948
 30
0.0
 11
-2.395986652351683
 21
3.645986652351682
 31
0.0
  0
LINE
  5
158
330
1F
100
AcDbEntity
  8
0
100
AcDbLine
 10
-2.395986652351683
 20
3.645986652351682
 30
0.0
 11
-2.376121824526947
 21
3.671875000000001
 31
0.0
  0
LINE
  5
159
330
1F
100
AcDbEntity
  8
0
100
AcDbLine
 10
-2.376121824526947
 20
3.671875000000001
 30
0.0
 11
-2.363634271713868
 21
3.702022619362183
 31
0.0
  0
LINE
  5
15A
330
1F
100
AcDbEntity
  8
0
100
AcDbLine
 10
-2.363634271713868
 20
3.702022619362183
 30
0.0
 11
-2.359375000000002
 21
3.734375000000001
 31
0.0
  0
LINE
  5
15B
330
1F
100
AcDbEntity
  8
0
100
AcDbLine
 10
-2.359375000000002
 20
3.734375000000001
 30
0.0
 11
-2.359022711484376
 21
4.265621028064815
 31
0.0
  0
LINE
  5
15C
330
1F
100
AcDbEntity
  8
0
100
AcDbLine
 10
-2.359022711484376
 20
4.265621028064815
 30
0.0
 11
-2.363281983198242
 21
4.297973408702632
 31
0.0
  0
LINE
  5
15D
330
1F
100
AcDbEntity
  8
0
100
AcDbLine
 10
-2.363281983198242
 20
4.297973408702632
 30
0.0
 11
-2.375769536011321
 21
4.328121028064815
 31
0.0
  0
LINE
  5
15E
330
1F
100
AcDbEntity
  8
0
100
AcDbLine
 10
-2.375769536011321
 20
4.328121028064815
 30
0.0
 11
-2.395634363836058
 21
4.354009375713134
 31
0.0
  0
LINE
  5
15F
330
1F
100
AcDbEntity
  8
0
100
AcDbLine
 10
-2.395634363836058
 20
4.354009375713134
 30
0.0
 11
-2.421522711484376
 21
4.373874203537867
 31
0.0
  0
LINE
  5
160
330
1F
100
AcDbEntity
  8
0
100
AcDbLine
 10
-2.421522711484376
 20
4.373874203537867
 30
0.0
 11
-2.451670330846561
 21
4.386361756350952
 31
0.0
  0
LINE
  5
161
330
1F
100
AcDbEntity
  8
0
100
AcDbLine
 10
-2.451670330846561
 20
4.386361756350952
 30
0.0
 11
-2.484022711484376
 21
4.390621028064815
 31
0.0
  0
LINE
  5
162
330
1F
100
AcDbEntity
  8
0
100
AcDbLine
 10
-2.484022711484376
 20
4.390621028064815
 30
0.0
 11
-2.516375092122191
 21
4.386361756350952
 31
0.0
  0
LINE
  5
163
330
1F
100
AcDbEntity
  8
0
100
AcDbLine
 10
-2.516375092122191
 20
4.386361756350952
 30
0.0
 11
-2.546522711484376
 21
4.373874203537867
 31
0.0
  0
LINE
  5
164
330
1F
100
AcDbEntity
  8
0
100
AcDbLine
 10
-2.546522711484376
 20
4.373874203537867
 30
0.0
 11
-2.572411059132695
 21
4.354009375713134
 31
0.0
  0
LINE
  5
165
330
1F
100
AcDbEntity
  8
0
100
AcDbLine
 10
-2.572411059132695
 20
4.354009375713134
 30
0.0
 11
-2.59227588695743
 21
4.328121028064815
 31
0.0
  0
LINE
  5
166
330
1F
100
AcDbEntity
  8
0
100
AcDbLine
 10
-2.59227588695743
 20
4.328121028064815
 30
0.0
 11
-2.60476343977051
 21
4.297973408702632
 31
0.0
  0
LINE
  5
167
330
1F
100
AcDbEntity
  8
0
100
AcDbLine
 10
-2.60476343977051
 20
4.297973408702632
 30
0.0
 11
-2.609022711484376
 21
4.265621028064815
 31
0.0
  0
LINE
  5
168
330
1F
100
AcDbEntity
  8
0
100
AcDbLine
 10
-2.609022711484376
 20
4.265621028064815
 30
0.0
 11
-3.374647711484376
 21
4.265621028064815
 31
0.0
  0
LINE
  5
169
330
1F
100
AcDbEntity
  8
0
100
AcDbLine
 10
-3.374647711484376
 20
4.265621028064815
 30
0.0
 11
-3.375
 21
4.500000000000001
 31
0.0
  0
LINE
  5
16A
330
1F
100
AcDbEntity
  8
0
100
AcDbLine
 10
-3.375
 20
4.500000000000001
 30
0.0
 11
-3.373097349045872
 21
4.543577871373828
 31
0.0
  0
LINE
  5
16B
330
1F
100
AcDbEntity
  8
0
100
AcDbLine
 10
-3.373097349045872
 20
4.543577871373828
 30
0.0
 11
-3.367403876506105
 21
4.586824088833468
 31
0.0
  0
LINE
  5
16C
330
1F
100
AcDbEntity
  8
0
100
AcDbLine
 10
-3.367403876506105
 20
4.586824088833468
 30
0.0
 11
-3.357962913144535
 21
4.629409522551257
 31
0.0
  0
LINE
  5
16D
330
1F
100
AcDbEntity
  8
0
100
AcDbLine
 10
-3.357962913144535
 20
4.629409522551257
 30
0.0
 11
-3.344846310392956
 21
4.671010071662836
 31
0.0
  0
LINE
  5
16E
330
1F
100
AcDbEntity
  8
0
100
AcDbLine
 10
-3.344846310392956
 20
4.671010071662836
 30
0.0
 11
-3.328153893518326
 21
4.711309130870348
 31
0.0
  0
LINE
  5
16F
330
1F
100
AcDbEntity
  8
0
100
AcDbLine
 10
-3.328153893518326
 20
4.711309130870348
 30
0.0
 11
-3.308012701892221
 21
4.750000000000001
 31
0.0
  0
LINE
  5
170
330
1F
100
AcDbEntity
  8
0
100
AcDbLine
 10
-3.308012701892221
 20
4.750000000000001
 30
0.0
 11
-3.284576022144497
 21
4.786788218175524
 31
0.0
  0
LINE
  5
171
330
1F
100
AcDbEntity
  8
0
100
AcDbLine
 10
-3.284576022144497
 20
4.786788218175524
 30
0.0
 11
-3.258022221559491
 21
4.821393804843269
 31
0.0
  0
LINE
  5
172
330
1F
100
AcDbEntity
  8
0
100
AcDbLine
 10
-3.258022221559491
 20
4.821393804843269
 30
0.0
 11
-3.228553390593275
 21
4.853553390593278
 31
0.0
  0
LINE
  5
173
330
1F
100
AcDbEntity
  8
0
100
AcDbLine
 10
-3.228553390593275
 20
4.853553390593278
 30
0.0
 11
-3.196393804843271
 21
4.883022221559487
 31
0.0
  0
LINE
  5
174
330
1F
100
AcDbEntity
  8
0
100
AcDbLine
 10
-3.196393804843271
 20
4.883022221559487
 30
0.0
 11
-3.161788218175525
 21
4.909576022144493
 31
0.0
  0
LINE
  5
175
330
1F
100
AcDbEntity
  8
0
100
AcDbLine
 10
-3.161788218175525
 20
4.909576022144493
 30
0.0
 11
-3.125
 21
4.933012701892225
 31
0.0
  0
LINE
  5
176
330
1F
100
AcDbEntity
  8
0
100
AcDbLine
 10
-3.125
 20
4.933012701892225
 30
0.0
 11
-3.086309130870351
 21
4.953153893518327
 31
0.0
  0
LINE
  5
177
330
1F
100
AcDbEntity
  8
0
100
AcDbLine
 10
-3.086309130870351
 20
4.953153893518327
 30
0.0
 11
-3.046010071662836
 21
4.969846310392954
 31
0.0
  0
LINE
  5
178
330
1F
100
AcDbEntity
  8
0
100
AcDbLine
 10
-3.046010071662836
 20
4.969846310392954
 30
0.0
 11
-3.004409522551261
 21
4.982962913144534
 31
0.0
  0
LINE
  5
179
330
1F
100
AcDbEntity
  8
0
100
AcDbLine
 10
-3.004409522551261
 20
4.982962913144534
 30
0.0
 11
-2.961824088833466
 21
4.992403876506104
 31
0.0
  0
LINE
  5
17A
330
1F
100
AcDbEntity
  8
0
100
AcDbLine
 10
-2.961824088833466
 20
4.992403876506104
 30
0.0
 11
-2.918577871373829
 21
4.998097349045872
 31
0.0
  0
LINE
  5
17B
330
1F
100
AcDbEntity
  8
0
100
AcDbLine
 10
-2.918577871373829
 20
4.998097349045872
 30
0.0
 11
-2.875
 21
5.000000000000001
 31
0.0
  0
LINE
  5
17C
330
1F
100
AcDbEntity
  8
0
100
AcDbLine
 10
-2.875
 20
5.000000000000001
 30
0.0
 11
2.625
 21
4.999999999999999
 31
0.0
  0
LINE
  5
17D
330
1F
100
AcDbEntity
  8
0
100
AcDbLine
 10
3.125
 20
4.499999999999999
 30
0.0
 11
3.124999999999998
 21
4.265624999999999
 31
0.0
  0
LINE
  5
17E
330
1F
100
AcDbEntity
  8
0
100
AcDbLine
 10
2.359374999999996
 20
4.265624999999999
 30
0.0
 11
2.35511572828613
 21
4.297977380637817
 31
0.0
  0
LINE
  5
17F
330
1F
100
AcDbEntity
  8
0
100
AcDbLine
 10
2.35511572828613
 20
4.297977380637817
 30
0.0
 11
2.342628175473051
 21
4.328124999999999
 31
0.0
  0
LINE
  5
180
330
1F
100
AcDbEntity
  8
0
100
AcDbLine
 10
2.342628175473051
 20
4.328124999999999
 30
0.0
 11
2.322763347648314
 21
4.354013347648318
 31
0.0
  0
LINE
  5
181
330
1F
100
AcDbEntity
  8
0
100
AcDbLine
 10
2.322763347648314
 20
4.354013347648318
 30
0.0
 11
2.296874999999996
 21
4.373878175473059
 31
0.0
  0
LINE
  5
182
330
1F
100
AcDbEntity
  8
0
100
AcDbLine
 10
2.296874999999996
 20
4.373878175473059
 30
0.0
 11
2.266727380637812
 21
4.386365728286136
 31
0.0
  0
LINE
  5
183
330
1F
100
AcDbEntity
  8
0
100
AcDbLine
 10
2.266727380637812
 20
4.386365728286136
 30
0.0
 11
2.234374999999996
 21
4.390624999999999
 31
0.0
  0
LINE
  5
184
330
1F
100
AcDbEntity
  8
0
100
AcDbLine
 10
2.234374999999996
 20
4.390624999999999
 30
0.0
 11
2.202022619362182
 21
4.386365728286136
 31
0.0
  0
LINE
  5
185
330
1F
100
AcDbEntity
  8
0
100
AcDbLine
 10
2.202022619362182
 20
4.386365728286136
 30
0.0
 11
2.171874999999996
 21
4.373878175473059
 31
0.0
  0
LINE
  5
186
330
1F
100
AcDbEntity
  8
0
100
AcDbLine
 10
2.171874999999996
 20
4.373878175473059
 30
0.0
 11
2.145986652351677
 21
4.354013347648318
 31
0.0
  0
LINE
  5
187
330
1F
100
AcDbEntity
  8
0
100
AcDbLine
 10
2.145986652351677
 20
4.354013347648318
 30
0.0
 11
2.126121824526942
 21
4.328124999999999
 31
0.0
  0
LINE
  5
188
330
1F
100
AcDbEntity
  8
0
100
AcDbLine
 10
2.126121824526942
 20
4.328124999999999
 30
0.0
 11
2.113634271713863
 21
4.297977380637817
 31
0.0
  0
LINE
  5
189
330
1F
100
AcDbEntity
  8
0
100
AcDbLine
 10
2.113634271713863
 20
4.297977380637817
 30
0.0
 11
2.109374999999996
 21
4.265624999999999
 31
0.0
  0
LINE
  5
18A
330
1F
100
AcDbEntity
  8
0
100
AcDbLine
 10
2.109374999999996
 20
3.734374999999999
 30
0.0
 11
2.113634271713863
 21
3.702022619362189
 31
0.0
  0
LINE
  5
18B
330
1F
100
AcDbEntity
  8
0
100
AcDbLine
 10
2.113634271713863
 20
3.702022619362189
 30
0.0
 11
2.126121824526942
 21
3.671874999999999
 31
0.0
  0
LINE
  5
18C
330
1F
100
AcDbEntity
  8
0
100
AcDbLine
 10
2.126121824526942
 20
3.671874999999999
 30
0.0
 11
2.145986652351679
 21
3.64598665235168
 31
0.0
  0
LINE
  5
18D
330
1F
100
AcDbEntity
  8
0
100
AcDbLine
 10
2.145986652351679
 20
3.64598665235168
 30
0.0
 11
2.171874999999998
 21
3.626121824526947
 31
0.0
  0
LINE
  5
18E
330
1F
100
AcDbEntity
  8
0
100
AcDbLine
 10
2.171874999999998
 20
3.626121824526947
 30
0.0
 11
2.202022619362182
 21
3.613634271713869
 31
0.0
  0
LINE
  5
18F
330
1F
100
AcDbEntity
  8
0
100
AcDbLine
 10
2.202022619362182
 20
3.613634271713869
 30
0.0
 11
2.234374999999998
 21
3.609374999999999
 31
0.0
  0
LINE
  5
190
330
1F
100
AcDbEntity
  8
0
100
AcDbLine
 10
2.234374999999998
 20
3.609374999999999
 30
0.0
 11
2.266727380637812
 21
3.613634271713869
 31
0.0
  0
LINE
  5
191
330
1F
100
AcDbEntity
  8
0
100
AcDbLine
 10
2.266727380637812
 20
3.613634271713869
 30
0.0
 11
2.296874999999998
 21
3.626121824526947
 31
0.0
  0
LINE
  5
192
330
1F
100
AcDbEntity
  8
0
100
AcDbLine
 10
2.296874999999998
 20
3.626121824526947
 30
0.0
 11
2.322763347648316
 21
3.64598665235168
 31
0.0
  0
LINE
  5
193
330
1F
100
AcDbEntity
  8
0
100
AcDbLine
 10
2.322763347648316
 20
3.64598665235168
 30
0.0
 11
2.342628175473052
 21
3.671874999999999
 31
0.0
  0
LINE
  5
194
330
1F
100
AcDbEntity
  8
0
100
AcDbLine
 10
2.342628175473052
 20
3.671874999999999
 30
0.0
 11
2.35511572828613
 21
3.702022619362189
 31
0.0
  0
LINE
  5
195
330
1F
100
AcDbEntity
  8
0
100
AcDbLine
 10
2.35511572828613
 20
3.702022619362189
 30
0.0
 11
2.359374999999996
 21
3.734374999999999
 31
0.0
  0
ENDSEC
  0
SECTION
  2
OBJECTS
  0
DICTIONARY
  5
C
330
0
100
AcDbDictionary
  3
ACAD_GROUP
350
D
  3
ACAD_LAYOUT
350
1A
  3
ACAD_MATERIAL
350
43
  3
ACAD_MLEADERSTYLE
350
1B8
  3
ACAD_MLINESTYLE
350
17
  3
ACAD_PLOTSETTINGS
350
19
  3
ACAD_SCALELIST
350
47
  3
ACAD_VISUALSTYLE
350
2A
  3
ACDBHEADERROUNDTRIPXREC
350
196
  3
ACDBVARIABLEDICTIONARY
350
1B6
  0
DICTIONARY
  5
1BD
330
8
100
AcDbDictionary
280
     1
  3
ACAD_XREC_ROUNDTRIP
360
1BE
  0
DICTIONARY
  5
D
102
{ACAD_REACTORS
330
C
102
}
330
C
100
AcDbDictionary
  0
DICTIONARY
  5
1A
102
{ACAD_REACTORS
330
C
102
}
330
C
100
AcDbDictionary
  0
DICTIONARY
  5
43
102
{ACAD_REACTORS
330
C
102
}
330
C
100
AcDbDictionary
  3
BYBLOCK
350
45
  3
BYLAYER
350
44
  3
GLOBAL
350
46
  0
DICTIONARY
  5
1B8
102
{ACAD_REACTORS
330
C
102
}
330
C
100
AcDbDictionary
  0
DICTIONARY
  5
17
102
{ACAD_REACTORS
330
C
102
}
330
C
100
AcDbDictionary
  3
STANDARD
350
18
  0
DICTIONARY
  5
19
102
{ACAD_REACTORS
330
C
102
}
330
C
100
AcDbDictionary
  0
DICTIONARY
  5
47
102
{ACAD_REACTORS
330
C
102
}
330
C
100
AcDbDictionary
  3
A0
350
48
  3
A1
350
49
  3
A2
350
4A
  3
A3
350
4B
  3
A4
350
4C
  3
A5
350
4D
  3
A6
350
4E
  3
A7
350
4F
  3
A8
350
50
  3
A9
350
51
  3
B0
350
52
  3
B1
350
53
  3
B2
350
54
  3
B3
350
55
  3
B4
350
56
  3
B5
350
57
  3
B6
350
58
  3
B7
350
59
  3
B8
350
5A
  3
B9
350
5B
  3
C0
350
5C
  3
C1
350
5D
  3
C2
350
5E
  3
C3
350
5F
  3
C4
350
60
  3
C5
350
61
  3
C6
350
62
  3
C7
350
63
  3
C8
350
64
  3
C9
350
65
  3
D0
350
66
  3
D1
350
67
  3
D2
350
68
  0
DICTIONARY
  5
2A
102
{ACAD_REACTORS
330
C
102
}
330
C
100
AcDbDictionary
  3
2DWIREFRAME
350
2F
  3
BASIC
350
32
  3
BRIGHTEN
350
36
  3
COLORCHANGE
350
3A
  3
CONCEPTUAL
350
34
  3
DIM
350
35
  3
EDGECOLOROFF
350
3D
  3
FACEPATTERN
350
39
  3
FLAT
350
2B
  3
FLATWITHEDGES
350
2C
  3
GOURAUD
350
2D
  3
GOURAUDWITHEDGES
350
2E
  3
HIDDEN
350
31
  3
JITTEROFF
350
3B
  3
LINEPATTERN
350
38
  3
OVERHANGOFF
350
3C
  3
REALISTIC
350
33
  3
SHADED
350
42
  3
SHADED_WITH_EDGES
350
41
  3
SHADES_OF_GRAY
350
3E
  3
SKETCHY
350
3F
  3
THICKEN
350
37
  3
WIREFRAME
350
30
  3
X-RAY
350
40
  0
DICTIONARY
  5
196
102
{ACAD_REACTORS
330
C
102
}
330
C
100
AcDbDictionary
  3
CEPSNTYPE
350
19F
  3
DIMSTYLEDATA
350
1B5
  3
FINGERPRINTGUID
350
1A0
  3
HYPERLINKBASE
350
199
  3
INSUNITS
350
19E
  3
LAYOUTDICT
350
19B
  3
LWETCUNION
350
19D
  3
PLOTSETDICT
350
19C
  3
PSVPSCALE
350
1A2
  3
PUCSBASE
350
1A5
  3
PUCSORGBACK
350
1AB
  3
PUCSORGBOTTOM
350
1A7
  3
PUCSORGFRONT
350
1AA
  3
PUCSORGLEFT
350
1A8
  3
PUCSORGRIGHT
350
1A9
  3
PUCSORGTOP
350
1A6
  3
PUCSORTHOREF
350
1A3
  3
PUCSORTHOVIEW
350
1A4
  3
STYLESHEET
350
19A
  3
TSTACKALIGN
350
197
  3
TSTACKSIZE
350
198
  3
UCSBASE
350
1AE
  3
UCSORGBACK
350
1B4
  3
UCSORGBOTTOM
350
1B0
  3
UCSORGFRONT
350
1B3
  3
UCSORGLEFT
350
1B1
  3
UCSORGRIGHT
350
1B2
  3
UCSORGTOP
350
1AF
  3
UCSORTHOREF
350
1AC
  3
UCSORTHOVIEW
350
1AD
  3
VERSIONGUID
350
1A1
  0
DICTIONARY
  5
1B6
102
{ACAD_REACTORS
330
C
102
}
330
C
100
AcDbDictionary
  3
CANNOSCALE
350
1BF
  3
DIMASSOC
350
1BB
  3
HIDETEXT
350
1BC
  3
MSLTSCALE
350
1C0
  0
XRECORD
  5
1BE
102
{ACAD_REACTORS
330
1BD
102
}
330
1BD
100
AcDbXrecord
102
VTR_0.000_0.000_1.000_1.000_GRIDDISPLAY
 70
     3
102
VTR_0.000_0.000_1.000_1.000_GRIDMAJOR
 70
     5
102
VTR_0.000_0.000_1.000_1.000_DEFAULTLIGHTING
280
     1
102
VTR_0.000_0.000_1.000_1.000_DEFAULTLIGHTINGTYPE
 70
     1
102
VTR_0.000_0.000_1.000_1.000_BRIGHTNESS
141
0.0
102
VTR_0.000_0.000_1.000_1.000_CONTRAST
142
0.0
  0
MATERIAL
  5
45
102
{ACAD_REACTORS
330
43
102
}
102
{ACAD_XDICTIONARY
360
1C3
102
}
330
43
100
AcDbMaterial
  1
BYBLOCK
  0
MATERIAL
  5
44
102
{ACAD_REACTORS
330
43
102
}
102
{ACAD_XDICTIONARY
360
1C1
102
}
330
43
100
AcDbMaterial
  1
BYLAYER
  0
MATERIAL
  5
46
102
{ACAD_REACTORS
330
43
102
}
102
{ACAD_XDICTIONARY
360
1C5
102
}
330
43
100
AcDbMaterial
  1
GLOBAL
  0
MLINESTYLE
  5
18
102
{ACAD_REACTORS
330
17
102
}
330
17
100
AcDbMlineStyle
  2
Standard
 70
     0
  3

 62
   256
 51
90.0
 52
90.0
 71
     2
 49
0.5
 62
   256
  6
BYLAYER
 49
-0.5
 62
   256
  6
BYLAYER
  0
ACAD_PROXY_OBJECT
  5
48
102
{ACAD_REACTORS
330
47
102
}
330
47
100
AcDbProxyObject
 90
      499
 91
      503
 93
       41
310
903313A31580
  0
ACAD_PROXY_OBJECT
  5
49
102
{ACAD_REACTORS
330
47
102
}
330
47
100
AcDbProxyObject
 90
      499
 91
      503
 93
      105
310
903313A324000000000000004000
  0
ACAD_PROXY_OBJECT
  5
4A
102
{ACAD_REACTORS
330
47
102
}
330
47
100
AcDbProxyObject
 90
      499
 91
      503
 93
      105
310
903313A344000000000000104000
  0
ACAD_PROXY_OBJECT
  5
4B
102
{ACAD_REACTORS
330
47
102
}
330
47
100
AcDbProxyObject
 90
      499
 91
      503
 93
      105
310
903313A354000000000000144000
  0
ACAD_PROXY_OBJECT
  5
4C
102
{ACAD_REACTORS
330
47
102
}
330
47
100
AcDbProxyObject
 90
      499
 91
      503
 93
      105
310
903313A384000000000000204000
  0
ACAD_PROXY_OBJECT
  5
4D
102
{ACAD_REACTORS
330
47
102
}
330
47
100
AcDbProxyObject
 90
      499
 91
      503
 93
      113
310
904313A31304000000000000244000
  0
ACAD_PROXY_OBJECT
  5
4E
102
{ACAD_REACTORS
330
47
102
}
330
47
100
AcDbProxyObject
 90
      499
 91
      503
 93
      113
310
904313A31364000000000000304000
  0
ACAD_PROXY_OBJECT
  5
4F
102
{ACAD_REACTORS
330
47
102
}
330
47
100
AcDbProxyObject
 90
      499
 91
      503
 93
      113
310
904313A32304000000000000344000
  0
ACAD_PROXY_OBJECT
  5
50
102
{ACAD_REACTORS
330
47
102
}
330
47
100
AcDbProxyObject
 90
      499
 91
      503
 93
      113
310
904313A333040000000000003E4000
  0
ACAD_PROXY_OBJECT
  5
51
102
{ACAD_REACTORS
330
47
102
}
330
47
100
AcDbProxyObject
 90
      499
 91
      503
 93
      113
310
904313A34304000000000000444000
  0
ACAD_PROXY_OBJECT
  5
52
102
{ACAD_REACTORS
330
47
102
}
330
47
100
AcDbProxyObject
 90
      499
 91
      503
 93
      113
310
904313A35304000000000000494000
  0
ACAD_PROXY_OBJECT
  5
53
102
{ACAD_REACTORS
330
47
102
}
330
47
100
AcDbProxyObject
 90
      499
 91
      503
 93
      121
310
905313A3130304000000000000594000
  0
ACAD_PROXY_OBJECT
  5
54
102
{ACAD_REACTORS
330
47
102
}
330
47
100
AcDbProxyObject
 90
      499
 91
      503
 93
      105
310
903323A310000000000000010100
  0
ACAD_PROXY_OBJECT
  5
55
102
{ACAD_REACTORS
330
47
102
}
330
47
100
AcDbProxyObject
 90
      499
 91
      503
 93
      105
310
903343A310000000000000410100
  0
ACAD_PROXY_OBJECT
  5
56
102
{ACAD_REACTORS
330
47
102
}
330
47
100
AcDbProxyObject
 90
      499
 91
      503
 93
      105
310
903383A310000000000000810100
  0
ACAD_PROXY_OBJECT
  5
57
102
{ACAD_REACTORS
330
47
102
}
330
47
100
AcDbProxyObject
 90
      499
 91
      503
 93
      113
310
90431303A310000000000000910100
  0
ACAD_PROXY_OBJECT
  5
58
102
{ACAD_REACTORS
330
47
102
}
330
47
100
AcDbProxyObject
 90
      499
 91
      503
 93
      121
310
9053130303A310000000000001650100
  0
ACAD_PROXY_OBJECT
  5
59
102
{ACAD_REACTORS
330
47
102
}
330
47
100
AcDbProxyObject
 90
      499
 91
      503
 93
      257
310
90E312F31323822203D2031272D3022000000000000200FC000000000000284000
  0
ACAD_PROXY_OBJECT
  5
5A
102
{ACAD_REACTORS
330
47
102
}
330
47
100
AcDbProxyObject
 90
      499
 91
      503
 93
      249
310
90D312F363422203D2031272D3022000000000000240FC000000000000284000
  0
ACAD_PROXY_OBJECT
  5
5B
102
{ACAD_REACTORS
330
47
102
}
330
47
100
AcDbProxyObject
 90
      499
 91
      503
 93
      249
310
90D312F333222203D2031272D3022000000000000280FC000000000000284000
  0
ACAD_PROXY_OBJECT
  5
5C
102
{ACAD_REACTORS
330
47
102
}
330
47
100
AcDbProxyObject
 90
      499
 91
      503
 93
      249
310
90D312F313622203D2031272D30220000000000002C0FC000000000000284000
  0
ACAD_PROXY_OBJECT
  5
5D
102
{ACAD_REACTORS
330
47
102
}
330
47
100
AcDbProxyObject
 90
      499
 91
      503
 93
      249
310
90D332F333222203D2031272D30220000000000002E0FC000000000000284000
  0
ACAD_PROXY_OBJECT
  5
5E
102
{ACAD_REACTORS
330
47
102
}
330
47
100
AcDbProxyObject
 90
      499
 91
      503
 93
      241
310
90C312F3822203D2031272D3022000000000000300FC000000000000284000
  0
ACAD_PROXY_OBJECT
  5
5F
102
{ACAD_REACTORS
330
47
102
}
330
47
100
AcDbProxyObject
 90
      499
 91
      503
 93
      249
310
90D332F313622203D2031272D3022000000000000320FC000000000000284000
  0
ACAD_PROXY_OBJECT
  5
60
102
{ACAD_REACTORS
330
47
102
}
330
47
100
AcDbProxyObject
 90
      499
 91
      503
 93
      241
310
90C312F3422203D2031272D3022000000000000340FC000000000000284000
  0
ACAD_PROXY_OBJECT
  5
61
102
{ACAD_REACTORS
330
47
102
}
330
47
100
AcDbProxyObject
 90
      499
 91
      503
 93
      241
310
90C332F3822203D2031272D3022000000000000360FC000000000000284000
  0
ACAD_PROXY_OBJECT
  5
62
102
{ACAD_REACTORS
330
47
102
}
330
47
100
AcDbProxyObject
 90
      499
 91
      503
 93
      241
310
90C312F3222203D2031272D3022000000000000380FC000000000000284000
  0
ACAD_PROXY_OBJECT
  5
63
102
{ACAD_REACTORS
330
47
102
}
330
47
100
AcDbProxyObject
 90
      499
 91
      503
 93
      241
310
90C332F3422203D2031272D30220000000000003A0FC000000000000284000
  0
ACAD_PROXY_OBJECT
  5
64
102
{ACAD_REACTORS
330
47
102
}
330
47
100
AcDbProxyObject
 90
      499
 91
      503
 93
      161
310
90A3122203D2031272D30224000000000000284000
  0
ACAD_PROXY_OBJECT
  5
65
102
{ACAD_REACTORS
330
47
102
}
330
47
100
AcDbProxyObject
 90
      499
 91
      503
 93
      257
310
90E312D312F3222203D2031272D30220000000000003E0FC000000000000284000
  0
ACAD_PROXY_OBJECT
  5
66
102
{ACAD_REACTORS
330
47
102
}
330
47
100
AcDbProxyObject
 90
      499
 91
      503
 93
      225
310
90A3322203D2031272D302200000000000002100000000000000284000
  0
ACAD_PROXY_OBJECT
  5
67
102
{ACAD_REACTORS
330
47
102
}
330
47
100
AcDbProxyObject
 90
      499
 91
      503
 93
      225
310
90A3622203D2031272D302200000000000006100000000000000284000
  0
ACAD_PROXY_OBJECT
  5
68
102
{ACAD_REACTORS
330
47
102
}
330
47
100
AcDbProxyObject
 90
      499
 91
      503
 93
      249
310
90D31272D3022203D2031272D30220000000000000A100000000000000284000
  0
ACAD_PROXY_OBJECT
  5
2F
102
{ACAD_REACTORS
330
2A
102
}
330
2A
100
AcDbProxyObject
 90
      499
 91
      501
 93
      436
310
42CC9915DA5C99599C985B595049028333333333333E33F0000000000000F90107901411070040501600405405064090741402480A0340
1001
ACAD
1000
AcDbSavedByObjectVersion
1070
     0
  0
ACAD_PROXY_OBJECT
  5
32
102
{ACAD_REACTORS
330
2A
102
}
330
2A
100
AcDbProxyObject
 90
      499
 91
      501
 93
      388
310
4150985CDA58D07406404333333333333E33F0000000000000F90107A41107004050150841D405064090741402480A0350
1001
ACAD
1000
AcDbSavedByObjectVersion
1070
     0
  0
ACAD_PROXY_OBJECT
  5
36
102
{ACAD_REACTORS
330
2A
102
}
330
2A
100
AcDbProxyObject
 90
      499
 91
      501
 93
      428
310
42109C9A59DA1D195B90C409028333333333333E33F0000000000000F9010790141107004050150841D405064090741402480A029950
1001
ACAD
1000
AcDbSavedByObjectVersion
1070
     0
  0
ACAD_PROXY_OBJECT
  5
3A
102
{ACAD_REACTORS
330
2A
102
}
330
2A
100
AcDbProxyObject
 90
      499
 91
      501
 93
      452
310
42D0DBDB1BDC90DA185B99D95104090240C333333333333E33F0000000000000F90108901411070040501508421405064090741402480A0350
1001
ACAD
1000
AcDbSavedByObjectVersion
1070
     0
  0
ACAD_PROXY_OBJECT
  5
34
102
{ACAD_REACTORS
330
2A
102
}
330
2A
100
AcDbProxyObject
 90
      499
 91
      501
 93
      500
310
4290DBDB98D95C1D1D585B10940D028333333333333E33F0000000000000F90107902409070040501000000000018199010841D405064090740C02480A0340
1001
ACAD
1000
AcDbSavedByObjectVersion
1070
     0
  0
ACAD_PROXY_OBJECT
  5
35
102
{ACAD_REACTORS
330
2A
102
}
330
2A
100
AcDbProxyObject
 90
      499
 91
      501
 93
      412
310
40D11A5B50B409028333333333333E33F0000000000000F9010790141107004050150841D405064090741402480A02677FFFFFD0
1001
ACAD
1000
AcDbSavedByObjectVersion
1070
     0
  0
ACAD_PROXY_OBJECT
  5
3D
102
{ACAD_REACTORS
330
2A
102
}
330
2A
100
AcDbProxyObject
 90
      499
 91
      501
 93
      452
310
43115919D950DBDB1BDC93D999916409028333333333333E33F0000000000000F9010790141107004050150841D405064090741402480A0350
1001
ACAD
1000
AcDbSavedByObjectVersion
1070
     0
  0
ACAD_PROXY_OBJECT
  5
39
102
{ACAD_REACTORS
330
2A
102
}
330
2A
100
AcDbProxyObject
 90
      499
 91
      501
 93
      444
310
42D19858D95C185D1D195C9B90F409028333333333333E33F0000000000000F9010790141107004050150841D405064090741402480A0350
1001
ACAD
1000
AcDbSavedByObjectVersion
1070
     0
  0
ACAD_PROXY_OBJECT
  5
2B
102
{ACAD_REACTORS
330
2A
102
}
330
2A
100
AcDbProxyObject
 90
      499
 91
      501
 93
      380
310
41119B185D240901404333333333333E33F0000000000000F9010740A907004050150841D405064090741402480A1B50
1001
ACAD
1000
AcDbSavedByObjectVersion
1070
     0
  0
ACAD_PROXY_OBJECT
  5
2C
102
{ACAD_REACTORS
330
2A
102
}
330
2A
100
AcDbProxyObject
 90
      499
 91
      501
 93
      468
310
43519B185D15DA5D1A115919D95CD0140901404333333333333E33F0000000000000F90107409019070040501600405405064090741402480A1B50
1001
ACAD
1000
AcDbSavedByObjectVersion
1070
     0
  0
ACAD_PROXY_OBJECT
  5
2D
102
{ACAD_REACTORS
330
2A
102
}
330
2A
100
AcDbProxyObject
 90
      499
 91
      501
 93
      404
310
41D1DBDD5C985D5910240902404333333333333E33F0000000000000F9010740A9070040501641D405064090741402480A1B50
1001
ACAD
1000
AcDbSavedByObjectVersion
1070
     0
  0
ACAD_PROXY_OBJECT
  5
2E
102
{ACAD_REACTORS
330
2A
102
}
330
2A
100
AcDbProxyObject
 90
      499
 91
      501
 93
      492
310
4411DBDD5C985D5915DA5D1A115919D95CD0340902404333333333333E33F0000000000000F90107409019070040501600405405064090741402480A1B50
1001
ACAD
1000
AcDbSavedByObjectVersion
1070
     0
  0
ACAD_PROXY_OBJECT
  5
31
102
{ACAD_REACTORS
330
2A
102
}
330
2A
100
AcDbProxyObject
 90
      499
 91
      501
 93
      476
310
41921A5919195B90640502408333333333333E33F0000000000000F901079024090700405020000000000001110200405405064090740C02480A0340
1001
ACAD
1000
AcDbSavedByObjectVersion
1070
     0
  0
ACAD_PROXY_OBJECT
  5
3B
102
{ACAD_REACTORS
330
2A
102
}
330
2A
100
AcDbProxyObject
 90
      499
 91
      501
 93
      428
310
42529A5D1D195C93D999914409028333333333333E33F0000000000000F9010790141107004050150A41D405064090741402480A0350
1001
ACAD
1000
AcDbSavedByObjectVersion
1070
     0
  0
ACAD_PROXY_OBJECT
  5
38
102
{ACAD_REACTORS
330
2A
102
}
330
2A
100
AcDbProxyObject
 90
      499
 91
      501
 93
      444
310
42D31A5B995C185D1D195C9B90E409028333333333333E33F0000000000000F9010790141107004050750841D405064090741402483A0350
1001
ACAD
1000
AcDbSavedByObjectVersion
1070
     0
  0
ACAD_PROXY_OBJECT
  5
3C
102
{ACAD_REACTORS
330
2A
102
}
330
2A
100
AcDbProxyObject
 90
      499
 91
      501
 93
      444
310
42D3DD995C9A185B99D3D999915409028333333333333E33F0000000000000F9010790141107004050150941D405064090741402480A0350
1001
ACAD
1000
AcDbSavedByObjectVersion
1070
     0
  0
ACAD_PROXY_OBJECT
  5
33
102
{ACAD_REACTORS
330
2A
102
}
330
2A
100
AcDbProxyObject
 90
      499
 91
      501
 93
      428
310
425499585B1A5CDD1A58D08409038333333333333E33F0000000000000F9010740A907004050150800405405064090740C02480A1B40
1001
ACAD
1000
AcDbSavedByObjectVersion
1070
     0
  0
ACAD_PROXY_OBJECT
  5
42
102
{ACAD_REACTORS
330
2A
102
}
330
2A
100
AcDbProxyObject
 90
      499
 91
      501
 93
      420
310
4194DA1859195911B40902404333333333333E33F0000000000000F9010740A41107004050150800405405064090840C02480A0B40
1001
ACAD
1000
AcDbSavedByObjectVersion
1070
     0
  0
ACAD_PROXY_OBJECT
  5
41
102
{ACAD_REACTORS
330
2A
102
}
330
2A
100
AcDbProxyObject
 90
      499
 91
      501
 93
      516
310
4454DA18591959081DDA5D1A08195919D95CD1A40902404333333333333E33F0000000000000F901074090142907004050250800405405064090740C02480A0B40
1001
ACAD
1000
AcDbSavedByObjectVersion
1070
     0
  0
ACAD_PROXY_OBJECT
  5
3E
102
{ACAD_REACTORS
330
2A
102
}
330
2A
100
AcDbProxyObject
 90
      499
 91
      501
 93
      532
310
4394DA1859195CC81BD98811DC985E5174090240C333333333333E33F0000000000000F901079024090741D01000000000000111010841D405064090740C02480A0340
1001
ACAD
1000
AcDbSavedByObjectVersion
1070
     0
  0
ACAD_PROXY_OBJECT
  5
3F
102
{ACAD_REACTORS
330
2A
102
}
330
2A
100
AcDbProxyObject
 90
      499
 91
      501
 93
      476
310
41D4DAD95D18DA1E51840502408333333333333E33F0000000000000F901079024090741D01000000000000111010B41D405064090741802480A0340
1001
ACAD
1000
AcDbSavedByObjectVersion
1070
     0
  0
ACAD_PROXY_OBJECT
  5
37
102
{ACAD_REACTORS
330
2A
102
}
330
2A
100
AcDbProxyObject
 90
      499
 91
      501
 93
      412
310
41D51A1A58DAD95B90D409028333333333333E33F0000000000000F9010790141107004050150C41D405064090741402480A0350
1001
ACAD
1000
AcDbSavedByObjectVersion
1070
     0
  0
ACAD_PROXY_OBJECT
  5
30
102
{ACAD_REACTORS
330
2A
102
}
330
2A
100
AcDbProxyObject
 90
      499
 91
      501
 93
      420
310
4255DA5C99599C985B595059028333333333333E33F0000000000000F90107901411070040501600405405064090740C02480A0340
1001
ACAD
1000
AcDbSavedByObjectVersion
1070
     0
  0
ACAD_PROXY_OBJECT
  5
40
102
{ACAD_REACTORS
330
2A
102
}
330
2A
100
AcDbProxyObject
 90
      499
 91
      501
 93
      404
310
41560B54985E51940902404000000000000E03F0000000000000F9010740501907004050150841D405064090740C02480A1B40
1001
ACAD
1000
AcDbSavedByObjectVersion
1070
     0
  0
XRECORD
  5
19F
102
{ACAD_REACTORS
330
196
102
}
330
196
100
AcDbXrecord
 90
        0
  0
XRECORD
  5
1B5
102
{ACAD_REACTORS
330
196
102
}
330
196
100
AcDbXrecord
1000
DSTYLE
1002
{
1070
   340
340
11
1002
}
  0
XRECORD
  5
1A0
102
{ACAD_REACTORS
330
196
102
}
330
196
100
AcDbXrecord
  1
{53252BBD-BA75-418F-97B7-982C80335709}
  0
XRECORD
  5
199
102
{ACAD_REACTORS
330
196
102
}
330
196
100
AcDbXrecord
  1

  0
XRECORD
  5
19E
102
{ACAD_REACTORS
330
196
102
}
330
196
100
AcDbXrecord
 90
        1
  0
XRECORD
  5
19B
102
{ACAD_REACTORS
330
196
102
}
330
196
100
AcDbXrecord
340
1A
  0
XRECORD
  5
19D
102
{ACAD_REACTORS
330
196
102
}
330
196
100
AcDbXrecord
 90
    10781
  0
XRECORD
  5
19C
102
{ACAD_REACTORS
330
196
102
}
330
196
100
AcDbXrecord
340
19
  0
XRECORD
  5
1A2
102
{ACAD_REACTORS
330
196
102
}
330
196
100
AcDbXrecord
 40
0.0
  0
XRECORD
  5
1A5
102
{ACAD_REACTORS
330
196
102
}
330
196
100
AcDbXrecord
340
0
  0
XRECORD
  5
1AB
102
{ACAD_REACTORS
330
196
102
}
330
196
100
AcDbXrecord
 10
0.0
 20
0.0
 30
0.0
  0
XRECORD
  5
1A7
102
{ACAD_REACTORS
330
196
102
}
330
196
100
AcDbXrecord
 10
0.0
 20
0.0
 30
0.0
  0
XRECORD
  5
1AA
102
{ACAD_REACTORS
330
196
102
}
330
196
100
AcDbXrecord
 10
0.0
 20
0.0
 30
0.0
  0
XRECORD
  5
1A8
102
{ACAD_REACTORS
330
196
102
}
330
196
100
AcDbXrecord
 10
0.0
 20
0.0
 30
0.0
  0
XRECORD
  5
1A9
102
{ACAD_REACTORS
330
196
102
}
330
196
100
AcDbXrecord
 10
0.0
 20
0.0
 30
0.0
  0
XRECORD
  5
1A6
102
{ACAD_REACTORS
330
196
102
}
330
196
100
AcDbXrecord
 10
0.0
 20
0.0
 30
0.0
  0
XRECORD
  5
1A3
102
{ACAD_REACTORS
330
196
102
}
330
196
100
AcDbXrecord
340
0
  0
XRECORD
  5
1A4
102
{ACAD_REACTORS
330
196
102
}
330
196
100
AcDbXrecord
 70
     0
  0
XRECORD
  5
19A
102
{ACAD_REACTORS
330
196
102
}
330
196
100
AcDbXrecord
  1

  0
XRECORD
  5
197
102
{ACAD_REACTORS
330
196
102
}
330
196
100
AcDbXrecord
 90
        1
  0
XRECORD
  5
198
102
{ACAD_REACTORS
330
196
102
}
330
196
100
AcDbXrecord
 90
       70
  0
XRECORD
  5
1AE
102
{ACAD_REACTORS
330
196
102
}
330
196
100
AcDbXrecord
340
0
  0
XRECORD
  5
1B4
102
{ACAD_REACTORS
330
196
102
}
330
196
100
AcDbXrecord
 10
0.0
 20
0.0
 30
0.0
  0
XRECORD
  5
1B0
102
{ACAD_REACTORS
330
196
102
}
330
196
100
AcDbXrecord
 10
0.0
 20
0.0
 30
0.0
  0
XRECORD
  5
1B3
102
{ACAD_REACTORS
330
196
102
}
330
196
100
AcDbXrecord
 10
0.0
 20
0.0
 30
0.0
  0
XRECORD
  5
1B1
102
{ACAD_REACTORS
330
196
102
}
330
196
100
AcDbXrecord
 10
0.0
 20
0.0
 30
0.0
  0
XRECORD
  5
1B2
102
{ACAD_REACTORS
330
196
102
}
330
196
100
AcDbXrecord
 10
0.0
 20
0.0
 30
0.0
  0
XRECORD
  5
1AF
102
{ACAD_REACTORS
330
196
102
}
330
196
100
AcDbXrecord
 10
0.0
 20
0.0
 30
0.0
  0
XRECORD
  5
1AC
102
{ACAD_REACTORS
330
196
102
}
330
196
100
AcDbXrecord
340
0
  0
XRECORD
  5
1AD
102
{ACAD_REACTORS
330
196
102
}
330
196
100
AcDbXrecord
 70
     0
  0
XRECORD
  5
1A1
102
{ACAD_REACTORS
330
196
102
}
330
196
100
AcDbXrecord
  1
{FAEB1C32-E019-11D5-929B-00C0DF256EC4}
  0
DICTIONARYVAR
  5
1BF
102
{ACAD_REACTORS
330
1B6
102
}
330
1B6
100
DictionaryVariables
280
     0
  1
1:1
  0
DICTIONARYVAR
  5
1BB
102
{ACAD_REACTORS
330
1B6
102
}
330
1B6
100
DictionaryVariables
280
     0
  1
2
  0
DICTIONARYVAR
  5
1BC
102
{ACAD_REACTORS
330
1B6
102
}
330
1B6
100
DictionaryVariables
280
     0
  1
1
  0
DICTIONARYVAR
  5
1C0
102
{ACAD_REACTORS
330
1B6
102
}
330
1B6
100
DictionaryVariables
280
     0
  1
1
  0
DICTIONARY
  5
1C3
330
45
100
AcDbDictionary
280
     1
  3
ACAD_XREC_ROUNDTRIP
360
1C4
  0
DICTIONARY
  5
1C1
330
44
100
AcDbDictionary
280
     1
  3
ACAD_XREC_ROUNDTRIP
360
1C2
  0
DICTIONARY
  5
1C5
330
46
100
AcDbDictionary
280
     1
  3
ACAD_XREC_ROUNDTRIP
360
1C6
  0
XRECORD
  5
1C4
102
{ACAD_REACTORS
330
1C3
102
}
330
1C3
100
AcDbXrecord
102
MATERIAL
148
0.0
149
0.0
149
0.0
 93
        0
 94
      127
282
     0
 72
     1
 77
     1
171
     1
175
     1
179
     1
273
     0
  0
XRECORD
  5
1C2
102
{ACAD_REACTORS
330
1C1
102
}
330
1C1
100
AcDbXrecord
102
MATERIAL
148
0.0
149
0.0
149
0.0
 93
        0
 94
      127
282
     0
 72
     1
 77
     1
171
     1
175
     1
179
     1
273
     0
  0
XRECORD
  5
1C6
102
{ACAD_REACTORS
330
1C5
102
}
330
1C5
100
AcDbXrecord
102
MATERIAL
148
0.0
149
0.0
149
0.0
 93
        0
 94
      127
282
     0
 72
     1
 77
     1
171
     1
175
     1
179
     1
273
     0
  0
ENDSEC
  0
EOF
